<svg width="128" height="128" viewBox="0 0 128 128" fill="none" xmlns="http://www.w3.org/2000/svg">
  <rect width="128" height="128" rx="36" fill="#0F172A"/>
  <circle cx="64" cy="40" r="18" fill="url(#paint0_linear_1_2)"/>
  <path d="M64 26C54.6112 26 47 33.6112 47 43C47 54.5988 62.625 76.825 63.2891 77.7656C63.6406 78.2617 64.3594 78.2617 64.7109 77.7656C65.375 76.825 81 54.5988 81 43C81 33.6112 73.3888 26 64 26ZM64 50C60.134 50 57 46.866 57 43C57 39.134 60.134 36 64 36C67.866 36 71 39.134 71 43C71 46.866 67.866 50 64 50Z" fill="#E2E8F0"/>
  <path d="M29 87C38.4 78.4667 50.0667 74.2 64 74.2C77.9333 74.2 89.6 78.4667 99 87" stroke="#F8FAFC" stroke-width="8" stroke-linecap="round"/>
  <path d="M40 99C47.7333 94.3333 55.7333 92 64 92C72.2667 92 80.2667 94.3333 88 99" stroke="url(#paint1_linear_1_2)" stroke-width="8" stroke-linecap="round"/>
  <defs>
    <linearGradient id="paint0_linear_1_2" x1="46" y1="22" x2="82" y2="58" gradientUnits="userSpaceOnUse">
      <stop stop-color="#F59E0B"/>
      <stop offset="1" stop-color="#FB7185"/>
    </linearGradient>
    <linearGradient id="paint1_linear_1_2" x1="40" y1="92" x2="88" y2="99" gradientUnits="userSpaceOnUse">
      <stop stop-color="#38BDF8"/>
      <stop offset="1" stop-color="#A78BFA"/>
    </linearGradient>
  </defs>
</svg>
