<svg xmlns="http://www.w3.org/2000/svg" xmlns:xlink="http://www.w3.org/1999/xlink" width="512" zoomAndPan="magnify" viewBox="0 0 384 135.000003" height="180" preserveAspectRatio="xMidYMid meet" version="1.0"><defs><g/><clipPath id="fde3670e69"><path d="M 1.410156 0 L 382.585938 0 L 382.585938 134.007812 L 1.410156 134.007812 Z M 1.410156 0 " clip-rule="nonzero"/></clipPath><clipPath id="8c42a1c783"><path d="M 24 71 L 34 71 L 34 80 L 24 80 Z M 24 71 " clip-rule="nonzero"/></clipPath><clipPath id="2e9c696f4d"><path d="M 33.867188 -66.753906 L 384.804688 25.019531 L 344.160156 180.4375 L -6.777344 88.660156 Z M 33.867188 -66.753906 " clip-rule="nonzero"/></clipPath><clipPath id="d4e7605c7d"><path d="M 33.867188 -66.753906 L 384.804688 25.019531 L 344.160156 180.4375 L -6.777344 88.660156 Z M 33.867188 -66.753906 " clip-rule="nonzero"/></clipPath><clipPath id="3ef3e76840"><path d="M 39 83 L 324 83 L 324 126 L 39 126 Z M 39 83 " clip-rule="nonzero"/></clipPath><clipPath id="dd3b6ae10c"><path d="M 33.867188 -66.753906 L 384.804688 25.019531 L 344.160156 180.4375 L -6.777344 88.660156 Z M 33.867188 -66.753906 " clip-rule="nonzero"/></clipPath><clipPath id="be38acdfb3"><path d="M 33.867188 -66.753906 L 384.804688 25.019531 L 344.160156 180.4375 L -6.777344 88.660156 Z M 33.867188 -66.753906 " clip-rule="nonzero"/></clipPath><clipPath id="cb8ce5b8cd"><path d="M 331 80 L 342 80 L 342 87 L 331 87 Z M 331 80 " clip-rule="nonzero"/></clipPath><clipPath id="680674ac8c"><path d="M 33.867188 -66.753906 L 384.804688 25.019531 L 344.160156 180.4375 L -6.777344 88.660156 Z M 33.867188 -66.753906 " clip-rule="nonzero"/></clipPath><clipPath id="7d13568deb"><path d="M 33.867188 -66.753906 L 384.804688 25.019531 L 344.160156 180.4375 L -6.777344 88.660156 Z M 33.867188 -66.753906 " clip-rule="nonzero"/></clipPath><clipPath id="59a27c5ef8"><path d="M 340 19 L 381 19 L 381 68 L 340 68 Z M 340 19 " clip-rule="nonzero"/></clipPath><clipPath id="4b24e95123"><path d="M 33.867188 -66.753906 L 384.804688 25.019531 L 344.160156 180.4375 L -6.777344 88.660156 Z M 33.867188 -66.753906 " clip-rule="nonzero"/></clipPath><clipPath id="23354f1923"><path d="M 33.867188 -66.753906 L 384.804688 25.019531 L 344.160156 180.4375 L -6.777344 88.660156 Z M 33.867188 -66.753906 " clip-rule="nonzero"/></clipPath><clipPath id="049da03c99"><path d="M 345 72 L 356 72 L 356 83 L 345 83 Z M 345 72 " clip-rule="nonzero"/></clipPath><clipPath id="29f6fd5e80"><path d="M 33.867188 -66.753906 L 384.804688 25.019531 L 344.160156 180.4375 L -6.777344 88.660156 Z M 33.867188 -66.753906 " clip-rule="nonzero"/></clipPath><clipPath id="cf9e753760"><path d="M 33.867188 -66.753906 L 384.804688 25.019531 L 344.160156 180.4375 L -6.777344 88.660156 Z M 33.867188 -66.753906 " clip-rule="nonzero"/></clipPath><clipPath id="e41a798a25"><path d="M 9 8 L 49 8 L 49 57 L 9 57 Z M 9 8 " clip-rule="nonzero"/></clipPath><clipPath id="aa6af7a9b6"><path d="M 33.867188 -66.753906 L 384.804688 25.019531 L 344.160156 180.4375 L -6.777344 88.660156 Z M 33.867188 -66.753906 " clip-rule="nonzero"/></clipPath><clipPath id="4ff7807186"><path d="M 33.867188 -66.753906 L 384.804688 25.019531 L 344.160156 180.4375 L -6.777344 88.660156 Z M 33.867188 -66.753906 " clip-rule="nonzero"/></clipPath><clipPath id="047143f87f"><path d="M 14 61 L 25 61 L 25 72 L 14 72 Z M 14 61 " clip-rule="nonzero"/></clipPath><clipPath id="32b9b66028"><path d="M 33.867188 -66.753906 L 384.804688 25.019531 L 344.160156 180.4375 L -6.777344 88.660156 Z M 33.867188 -66.753906 " clip-rule="nonzero"/></clipPath><clipPath id="b933f2d35f"><path d="M 33.867188 -66.753906 L 384.804688 25.019531 L 344.160156 180.4375 L -6.777344 88.660156 Z M 33.867188 -66.753906 " clip-rule="nonzero"/></clipPath><clipPath id="a30713e54d"><path d="M 23 70 L 33 70 L 33 78 L 23 78 Z M 23 70 " clip-rule="nonzero"/></clipPath><clipPath id="31a912afb0"><path d="M 32.972656 -68.019531 L 383.910156 23.753906 L 343.265625 179.167969 L -7.667969 87.394531 Z M 32.972656 -68.019531 " clip-rule="nonzero"/></clipPath><clipPath id="52526e78a3"><path d="M 32.972656 -68.019531 L 383.910156 23.753906 L 343.265625 179.167969 L -7.667969 87.394531 Z M 32.972656 -68.019531 " clip-rule="nonzero"/></clipPath><clipPath id="6dc2499415"><path d="M 38 81 L 323 81 L 323 125 L 38 125 Z M 38 81 " clip-rule="nonzero"/></clipPath><clipPath id="d6cd4234ec"><path d="M 32.972656 -68.019531 L 383.910156 23.753906 L 343.265625 179.167969 L -7.667969 87.394531 Z M 32.972656 -68.019531 " clip-rule="nonzero"/></clipPath><clipPath id="0ad862c00b"><path d="M 32.972656 -68.019531 L 383.910156 23.753906 L 343.265625 179.167969 L -7.667969 87.394531 Z M 32.972656 -68.019531 " clip-rule="nonzero"/></clipPath><clipPath id="8d55acc4df"><path d="M 331 79 L 341 79 L 341 86 L 331 86 Z M 331 79 " clip-rule="nonzero"/></clipPath><clipPath id="08351549bc"><path d="M 32.972656 -68.019531 L 383.910156 23.753906 L 343.265625 179.167969 L -7.667969 87.394531 Z M 32.972656 -68.019531 " clip-rule="nonzero"/></clipPath><clipPath id="9cd5213399"><path d="M 32.972656 -68.019531 L 383.910156 23.753906 L 343.265625 179.167969 L -7.667969 87.394531 Z M 32.972656 -68.019531 " clip-rule="nonzero"/></clipPath><clipPath id="433e7b4fe6"><path d="M 339 18 L 380 18 L 380 67 L 339 67 Z M 339 18 " clip-rule="nonzero"/></clipPath><clipPath id="2be86931f7"><path d="M 32.972656 -68.019531 L 383.910156 23.753906 L 343.265625 179.167969 L -7.667969 87.394531 Z M 32.972656 -68.019531 " clip-rule="nonzero"/></clipPath><clipPath id="8e88a99280"><path d="M 32.972656 -68.019531 L 383.910156 23.753906 L 343.265625 179.167969 L -7.667969 87.394531 Z M 32.972656 -68.019531 " clip-rule="nonzero"/></clipPath><clipPath id="f323eb72a4"><path d="M 344 71 L 355 71 L 355 82 L 344 82 Z M 344 71 " clip-rule="nonzero"/></clipPath><clipPath id="19846e5e55"><path d="M 32.972656 -68.019531 L 383.910156 23.753906 L 343.265625 179.167969 L -7.667969 87.394531 Z M 32.972656 -68.019531 " clip-rule="nonzero"/></clipPath><clipPath id="81d018da0d"><path d="M 32.972656 -68.019531 L 383.910156 23.753906 L 343.265625 179.167969 L -7.667969 87.394531 Z M 32.972656 -68.019531 " clip-rule="nonzero"/></clipPath><clipPath id="9c50275ae1"><path d="M 8 7 L 48 7 L 48 56 L 8 56 Z M 8 7 " clip-rule="nonzero"/></clipPath><clipPath id="ab586e0149"><path d="M 32.972656 -68.019531 L 383.910156 23.753906 L 343.265625 179.167969 L -7.667969 87.394531 Z M 32.972656 -68.019531 " clip-rule="nonzero"/></clipPath><clipPath id="0cf3fde8c0"><path d="M 32.972656 -68.019531 L 383.910156 23.753906 L 343.265625 179.167969 L -7.667969 87.394531 Z M 32.972656 -68.019531 " clip-rule="nonzero"/></clipPath><clipPath id="be2ba7a1d9"><path d="M 13 60 L 24 60 L 24 71 L 13 71 Z M 13 60 " clip-rule="nonzero"/></clipPath><clipPath id="e83c669c4f"><path d="M 32.972656 -68.019531 L 383.910156 23.753906 L 343.265625 179.167969 L -7.667969 87.394531 Z M 32.972656 -68.019531 " clip-rule="nonzero"/></clipPath><clipPath id="5a5a88088e"><path d="M 32.972656 -68.019531 L 383.910156 23.753906 L 343.265625 179.167969 L -7.667969 87.394531 Z M 32.972656 -68.019531 " clip-rule="nonzero"/></clipPath><clipPath id="66c63b06f1"><rect x="0" width="319" y="0" height="130"/></clipPath><clipPath id="3bfef347b4"><rect x="0" width="382" y="0" height="135"/></clipPath></defs><g clip-path="url(#fde3670e69)"><g transform="matrix(1, 0, 0, 1, 1, -0.000000000000003367)"><g clip-path="url(#3bfef347b4)"><g clip-path="url(#8c42a1c783)"><g clip-path="url(#2e9c696f4d)"><g clip-path="url(#d4e7605c7d)"><path fill="#5ce1e6" d="M 30.976562 79.171875 C 30.742188 79.109375 30.519531 79 30.316406 78.839844 C 28.601562 77.488281 26.875 76.082031 25.179688 74.664062 C 24.414062 74.027344 24.3125 72.886719 24.953125 72.121094 C 25.589844 71.355469 26.730469 71.253906 27.5 71.894531 C 29.164062 73.289062 30.867188 74.671875 32.554688 76.007812 C 33.339844 76.625 33.472656 77.761719 32.855469 78.542969 C 32.394531 79.128906 31.652344 79.347656 30.976562 79.171875 " fill-opacity="1" fill-rule="nonzero"/></g></g></g><g clip-path="url(#3ef3e76840)"><g clip-path="url(#dd3b6ae10c)"><g clip-path="url(#be38acdfb3)"><path fill="#5ce1e6" d="M 309.546875 95.914062 C 309 95.769531 308.523438 95.367188 308.3125 94.796875 C 307.960938 93.863281 308.433594 92.820312 309.367188 92.472656 C 313.253906 91.015625 317.242188 89.480469 321.234375 87.90625 C 322.160156 87.542969 323.210938 87.996094 323.578125 88.925781 C 323.941406 89.855469 323.488281 90.902344 322.558594 91.269531 C 318.550781 92.847656 314.539062 94.390625 310.636719 95.855469 C 310.273438 95.988281 309.898438 96.003906 309.546875 95.914062 Z M 285.519531 104.402344 C 284.945312 104.253906 284.457031 103.824219 284.257812 103.222656 C 283.945312 102.277344 284.457031 101.253906 285.40625 100.9375 C 289.339844 99.636719 293.386719 98.253906 297.425781 96.824219 C 298.367188 96.492188 299.398438 96.984375 299.730469 97.921875 C 300.066406 98.863281 299.570312 99.898438 298.632812 100.230469 C 294.570312 101.667969 290.5 103.0625 286.539062 104.371094 C 286.199219 104.484375 285.84375 104.488281 285.519531 104.402344 Z M 261.148438 111.84375 C 260.542969 111.6875 260.039062 111.222656 259.863281 110.582031 C 259.59375 109.621094 260.15625 108.625 261.117188 108.355469 C 265.117188 107.242188 269.214844 106.042969 273.304688 104.796875 C 274.257812 104.503906 275.269531 105.039062 275.558594 105.992188 C 275.851562 106.949219 275.316406 107.957031 274.359375 108.25 C 270.242188 109.511719 266.113281 110.714844 262.085938 111.839844 C 261.769531 111.925781 261.445312 111.921875 261.148438 111.84375 Z M 236.421875 118 C 235.785156 117.832031 235.261719 117.324219 235.113281 116.636719 C 234.898438 115.664062 235.519531 114.699219 236.492188 114.488281 C 240.546875 113.601562 244.699219 112.632812 248.847656 111.597656 C 249.8125 111.359375 250.792969 111.945312 251.035156 112.914062 C 251.277344 113.882812 250.691406 114.863281 249.722656 115.101562 C 245.542969 116.148438 241.351562 117.125 237.261719 118.015625 C 236.972656 118.078125 236.6875 118.070312 236.421875 118 Z M 211.363281 122.59375 C 210.683594 122.414062 210.136719 121.847656 210.03125 121.105469 C 209.886719 120.121094 210.570312 119.203125 211.558594 119.058594 C 215.65625 118.457031 219.863281 117.757812 224.0625 116.984375 C 225.042969 116.804688 225.984375 117.453125 226.164062 118.4375 C 226.34375 119.414062 225.695312 120.359375 224.714844 120.539062 C 220.472656 121.316406 216.226562 122.023438 212.082031 122.632812 C 211.832031 122.667969 211.589844 122.652344 211.363281 122.59375 Z M 186.03125 125.308594 C 185.296875 125.117188 184.738281 124.476562 184.683594 123.679688 C 184.617188 122.683594 185.375 121.824219 186.371094 121.757812 C 190.507812 121.488281 194.757812 121.117188 198.988281 120.664062 C 199.980469 120.558594 200.871094 121.273438 200.976562 122.265625 C 201.085938 123.257812 200.367188 124.148438 199.375 124.253906 C 195.089844 124.71875 190.796875 125.089844 186.605469 125.363281 C 186.40625 125.375 186.210938 125.355469 186.03125 125.308594 Z M 51.8125 93.847656 C 51.644531 93.800781 51.476562 93.730469 51.316406 93.632812 C 47.71875 91.394531 44.117188 89.003906 40.605469 86.53125 C 39.789062 85.957031 39.59375 84.828125 40.167969 84.011719 C 40.746094 83.195312 41.871094 83 42.6875 83.574219 C 46.140625 86.015625 49.6875 88.363281 53.226562 90.566406 C 54.074219 91.09375 54.332031 92.207031 53.804688 93.054688 C 53.375 93.742188 52.5625 94.042969 51.8125 93.847656 Z M 160.558594 125.804688 C 159.761719 125.597656 159.1875 124.863281 159.210938 124.007812 C 159.238281 123.007812 160.070312 122.222656 161.070312 122.253906 C 165.21875 122.371094 169.476562 122.386719 173.722656 122.300781 C 174.71875 122.28125 175.546875 123.074219 175.5625 124.070312 C 175.585938 125.070312 174.792969 125.894531 173.792969 125.914062 C 169.488281 126 165.175781 125.984375 160.964844 125.863281 C 160.824219 125.859375 160.6875 125.839844 160.558594 125.804688 Z M 74.214844 106 C 74.113281 105.972656 74.011719 105.9375 73.90625 105.886719 C 70.050781 104.089844 66.1875 102.140625 62.425781 100.101562 C 61.550781 99.625 61.226562 98.527344 61.703125 97.652344 C 62.179688 96.773438 63.273438 96.449219 64.152344 96.925781 C 67.847656 98.929688 71.644531 100.847656 75.433594 102.613281 C 76.339844 103.035156 76.730469 104.109375 76.308594 105.015625 C 75.933594 105.820312 75.042969 106.214844 74.214844 106 Z M 135.167969 123.75 C 134.296875 123.519531 133.714844 122.675781 133.835938 121.757812 C 133.96875 120.769531 134.882812 120.078125 135.871094 120.214844 C 139.992188 120.773438 144.222656 121.226562 148.441406 121.570312 C 149.429688 121.648438 150.175781 122.519531 150.097656 123.511719 C 150.015625 124.507812 149.144531 125.25 148.148438 125.171875 C 143.867188 124.824219 139.570312 124.359375 135.382812 123.792969 C 135.3125 123.785156 135.238281 123.769531 135.167969 123.75 Z M 97.929688 115.320312 C 97.894531 115.3125 97.863281 115.300781 97.828125 115.292969 C 93.761719 113.976562 89.691406 112.519531 85.722656 110.960938 C 84.792969 110.59375 84.339844 109.546875 84.703125 108.617188 C 85.066406 107.6875 86.117188 107.230469 87.042969 107.597656 C 90.945312 109.128906 94.945312 110.5625 98.9375 111.855469 C 99.890625 112.160156 100.410156 113.179688 100.101562 114.128906 C 99.804688 115.046875 98.847656 115.5625 97.929688 115.320312 Z M 110.167969 118.871094 C 109.207031 118.621094 108.628906 117.636719 108.875 116.675781 C 109.125 115.707031 110.109375 115.125 111.074219 115.375 C 115.117188 116.414062 119.265625 117.347656 123.402344 118.15625 C 124.378906 118.347656 125.019531 119.296875 124.828125 120.273438 C 124.636719 121.253906 123.6875 121.894531 122.710938 121.703125 C 118.503906 120.882812 114.285156 119.929688 110.175781 118.871094 C 110.171875 118.871094 110.171875 118.871094 110.167969 118.871094 " fill-opacity="1" fill-rule="nonzero"/></g></g></g><g clip-path="url(#cb8ce5b8cd)"><g clip-path="url(#680674ac8c)"><g clip-path="url(#7d13568deb)"><path fill="#5ce1e6" d="M 333.320312 86.546875 C 332.789062 86.410156 332.332031 86.035156 332.105469 85.488281 C 331.726562 84.5625 332.167969 83.507812 333.089844 83.128906 C 335.085938 82.308594 337.121094 81.460938 339.144531 80.609375 C 340.0625 80.222656 341.125 80.65625 341.507812 81.574219 C 341.894531 82.496094 341.464844 83.554688 340.542969 83.941406 C 338.515625 84.792969 336.46875 85.644531 334.464844 86.46875 C 334.085938 86.625 333.6875 86.644531 333.320312 86.546875 " fill-opacity="1" fill-rule="nonzero"/></g></g></g><g clip-path="url(#59a27c5ef8)"><g clip-path="url(#4b24e95123)"><g clip-path="url(#23354f1923)"><path fill="#5ce1e6" d="M 362.609375 31.65625 C 358.167969 30.496094 353.609375 33.160156 352.449219 37.601562 C 351.285156 42.042969 353.957031 46.597656 358.398438 47.761719 C 362.835938 48.921875 367.394531 46.253906 368.554688 41.8125 C 369.714844 37.375 367.046875 32.816406 362.609375 31.65625 Z M 357.648438 50.621094 C 351.632812 49.046875 348.015625 42.871094 349.589844 36.855469 C 351.164062 30.835938 357.339844 27.21875 363.355469 28.792969 C 369.371094 30.367188 372.988281 36.542969 371.414062 42.5625 C 369.839844 48.578125 363.664062 52.191406 357.648438 50.621094 Z M 364.890625 22.933594 C 362.722656 22.367188 360.507812 22.242188 358.3125 22.5625 C 356.1875 22.871094 354.167969 23.578125 352.304688 24.667969 C 350.445312 25.753906 348.839844 27.171875 347.53125 28.871094 C 346.179688 30.628906 345.203125 32.621094 344.636719 34.789062 C 343.65625 38.542969 343.546875 42.46875 344.316406 46.457031 C 344.933594 49.660156 346.117188 52.910156 347.832031 56.125 C 350.21875 60.589844 353.003906 63.75 353.949219 64.769531 C 355.269531 64.34375 359.261719 62.941406 363.511719 60.222656 C 366.582031 58.265625 369.203125 56.007812 371.3125 53.515625 C 373.933594 50.417969 375.761719 46.941406 376.742188 43.1875 C 377.308594 41.019531 377.4375 38.804688 377.117188 36.605469 C 376.808594 34.484375 376.101562 32.464844 375.011719 30.605469 C 373.921875 28.746094 372.507812 27.136719 370.808594 25.828125 C 369.046875 24.476562 367.058594 23.5 364.890625 22.933594 Z M 353.164062 67.765625 C 352.800781 67.671875 352.472656 67.480469 352.203125 67.21875 C 352.179688 67.191406 348.382812 63.433594 345.222656 57.515625 C 343.371094 54.046875 342.085938 50.507812 341.414062 47.015625 C 340.558594 42.589844 340.683594 38.226562 341.777344 34.042969 C 342.445312 31.488281 343.59375 29.144531 345.191406 27.066406 C 346.730469 25.0625 348.621094 23.398438 350.8125 22.117188 C 353.007812 20.832031 355.386719 20 357.886719 19.636719 C 360.472656 19.257812 363.082031 19.40625 365.636719 20.074219 C 368.1875 20.742188 370.535156 21.890625 372.613281 23.488281 C 374.613281 25.027344 376.28125 26.917969 377.5625 29.109375 C 378.84375 31.300781 379.679688 33.679688 380.039062 36.183594 C 380.421875 38.773438 380.273438 41.382812 379.605469 43.933594 C 378.511719 48.117188 376.476562 51.984375 373.570312 55.425781 C 371.269531 58.140625 368.421875 60.597656 365.105469 62.714844 C 359.523438 66.285156 354.484375 67.699219 354.273438 67.757812 C 353.902344 67.859375 353.523438 67.859375 353.164062 67.765625 " fill-opacity="1" fill-rule="nonzero"/></g></g></g><g clip-path="url(#049da03c99)"><g clip-path="url(#29f6fd5e80)"><g clip-path="url(#cf9e753760)"><path fill="#5ce1e6" d="M 351.074219 75.757812 C 349.972656 75.472656 348.839844 76.132812 348.550781 77.238281 C 348.261719 78.339844 348.925781 79.472656 350.027344 79.761719 C 351.132812 80.050781 352.265625 79.386719 352.550781 78.285156 C 352.839844 77.179688 352.179688 76.046875 351.074219 75.757812 Z M 349.28125 82.621094 C 346.597656 81.921875 344.988281 79.171875 345.6875 76.488281 C 346.390625 73.808594 349.140625 72.199219 351.824219 72.902344 C 354.503906 73.601562 356.113281 76.351562 355.410156 79.03125 C 354.710938 81.710938 351.960938 83.324219 349.28125 82.621094 " fill-opacity="1" fill-rule="nonzero"/></g></g></g><g clip-path="url(#e41a798a25)"><g clip-path="url(#aa6af7a9b6)"><g clip-path="url(#4ff7807186)"><path fill="#5ce1e6" d="M 31.152344 20.792969 C 26.710938 19.632812 22.15625 22.300781 20.992188 26.738281 C 19.832031 31.183594 22.5 35.738281 26.941406 36.898438 C 31.378906 38.0625 35.9375 35.394531 37.097656 30.949219 C 38.257812 26.511719 35.59375 21.953125 31.152344 20.792969 Z M 26.191406 39.757812 C 20.175781 38.1875 16.5625 32.007812 18.136719 25.992188 C 19.707031 19.976562 25.882812 16.359375 31.898438 17.933594 C 37.917969 19.507812 41.535156 25.683594 39.960938 31.699219 C 38.386719 37.71875 32.210938 41.332031 26.191406 39.757812 Z M 33.433594 12.074219 C 31.265625 11.507812 29.054688 11.382812 26.855469 11.703125 C 24.734375 12.011719 22.714844 12.71875 20.851562 13.804688 C 18.992188 14.894531 17.386719 16.3125 16.078125 18.011719 C 14.722656 19.769531 13.75 21.761719 13.183594 23.929688 C 12.199219 27.683594 12.089844 31.605469 12.859375 35.59375 C 13.480469 38.796875 14.664062 42.050781 16.378906 45.265625 C 18.757812 49.71875 21.542969 52.886719 22.492188 53.90625 C 23.816406 53.480469 27.804688 52.078125 32.058594 49.363281 C 35.125 47.402344 37.75 45.148438 39.859375 42.652344 C 42.480469 39.554688 44.304688 36.082031 45.289062 32.328125 C 45.855469 30.160156 45.980469 27.945312 45.660156 25.746094 C 45.351562 23.625 44.644531 21.605469 43.554688 19.742188 C 42.464844 17.882812 41.050781 16.277344 39.351562 14.96875 C 37.589844 13.617188 35.597656 12.640625 33.433594 12.074219 Z M 21.707031 56.90625 C 21.347656 56.8125 21.015625 56.621094 20.746094 56.355469 C 20.714844 56.324219 16.9375 52.585938 13.769531 46.65625 C 11.914062 43.183594 10.632812 39.648438 9.957031 36.15625 C 9.105469 31.730469 9.226562 27.367188 10.320312 23.183594 C 10.988281 20.628906 12.136719 18.28125 13.730469 16.207031 C 15.273438 14.203125 17.167969 12.539062 19.359375 11.253906 C 21.550781 9.972656 23.929688 9.136719 26.429688 8.777344 C 29.019531 8.398438 31.628906 8.546875 34.179688 9.214844 C 36.734375 9.882812 39.082031 11.03125 41.15625 12.625 C 43.160156 14.167969 44.824219 16.058594 46.109375 18.25 C 47.386719 20.441406 48.222656 22.820312 48.585938 25.320312 C 48.964844 27.910156 48.816406 30.519531 48.148438 33.074219 C 47.054688 37.257812 45.023438 41.125 42.113281 44.5625 C 39.816406 47.28125 36.964844 49.738281 33.648438 51.855469 C 28.066406 55.425781 23.027344 56.839844 22.8125 56.898438 C 22.453125 56.996094 22.070312 57 21.707031 56.90625 " fill-opacity="1" fill-rule="nonzero"/></g></g></g><g clip-path="url(#047143f87f)"><g clip-path="url(#32b9b66028)"><g clip-path="url(#b933f2d35f)"><path fill="#5ce1e6" d="M 19.617188 64.898438 C 18.515625 64.609375 17.382812 65.273438 17.09375 66.375 C 16.804688 67.480469 17.46875 68.613281 18.570312 68.902344 C 19.675781 69.1875 20.804688 68.527344 21.09375 67.421875 C 21.382812 66.320312 20.71875 65.1875 19.617188 64.898438 Z M 17.824219 71.757812 C 15.140625 71.058594 13.535156 68.308594 14.234375 65.628906 C 14.9375 62.949219 17.683594 61.335938 20.367188 62.039062 C 23.046875 62.738281 24.65625 65.492188 23.957031 68.171875 C 23.253906 70.851562 20.503906 72.460938 17.824219 71.757812 " fill-opacity="1" fill-rule="nonzero"/></g></g></g><g clip-path="url(#a30713e54d)"><g clip-path="url(#31a912afb0)"><g clip-path="url(#52526e78a3)"><path fill="#0c4a6e" d="M 30.085938 77.90625 C 29.851562 77.84375 29.628906 77.734375 29.421875 77.574219 C 27.707031 76.222656 25.980469 74.816406 24.285156 73.398438 C 23.523438 72.761719 23.417969 71.621094 24.058594 70.855469 C 24.699219 70.089844 25.839844 69.988281 26.605469 70.628906 C 28.269531 72.023438 29.976562 73.40625 31.664062 74.742188 C 32.449219 75.359375 32.582031 76.496094 31.960938 77.277344 C 31.503906 77.859375 30.757812 78.082031 30.085938 77.90625 " fill-opacity="1" fill-rule="nonzero"/></g></g></g><g clip-path="url(#6dc2499415)"><g clip-path="url(#d6cd4234ec)"><g clip-path="url(#0ad862c00b)"><path fill="#0c4a6e" d="M 308.652344 94.644531 C 308.105469 94.503906 307.632812 94.101562 307.417969 93.53125 C 307.066406 92.59375 307.542969 91.554688 308.476562 91.207031 C 312.359375 89.75 316.351562 88.214844 320.339844 86.640625 C 321.269531 86.277344 322.320312 86.730469 322.683594 87.660156 C 323.050781 88.589844 322.59375 89.636719 321.667969 90.003906 C 317.65625 91.582031 313.648438 93.125 309.742188 94.589844 C 309.382812 94.722656 309.003906 94.738281 308.652344 94.644531 Z M 284.625 103.136719 C 284.054688 102.988281 283.566406 102.558594 283.363281 101.957031 C 283.050781 101.007812 283.566406 99.984375 284.511719 99.671875 C 288.449219 98.371094 292.496094 96.988281 296.53125 95.558594 C 297.472656 95.226562 298.503906 95.71875 298.839844 96.65625 C 299.171875 97.597656 298.679688 98.628906 297.738281 98.964844 C 293.675781 100.402344 289.609375 101.796875 285.648438 103.105469 C 285.304688 103.21875 284.949219 103.222656 284.625 103.136719 Z M 260.253906 110.578125 C 259.652344 110.421875 259.148438 109.957031 258.972656 109.316406 C 258.703125 108.355469 259.261719 107.359375 260.222656 107.089844 C 264.222656 105.976562 268.320312 104.777344 272.410156 103.527344 C 273.363281 103.238281 274.375 103.773438 274.667969 104.726562 C 274.960938 105.683594 274.421875 106.691406 273.46875 106.984375 C 269.351562 108.242188 265.21875 109.449219 261.195312 110.574219 C 260.875 110.660156 260.550781 110.65625 260.253906 110.578125 Z M 235.53125 116.734375 C 234.894531 116.566406 234.371094 116.058594 234.21875 115.371094 C 234.007812 114.394531 234.625 113.433594 235.597656 113.222656 C 239.652344 112.335938 243.808594 111.367188 247.957031 110.332031 C 248.921875 110.089844 249.902344 110.679688 250.144531 111.648438 C 250.386719 112.617188 249.796875 113.597656 248.828125 113.835938 C 244.648438 114.882812 240.457031 115.859375 236.371094 116.75 C 236.082031 116.8125 235.796875 116.800781 235.53125 116.734375 Z M 210.46875 121.328125 C 209.789062 121.148438 209.246094 120.582031 209.136719 119.839844 C 208.992188 118.855469 209.675781 117.9375 210.664062 117.792969 C 214.765625 117.1875 218.972656 116.492188 223.167969 115.71875 C 224.148438 115.539062 225.09375 116.1875 225.269531 117.171875 C 225.453125 118.148438 224.804688 119.09375 223.820312 119.273438 C 219.582031 120.050781 215.332031 120.757812 211.191406 121.367188 C 210.941406 121.402344 210.699219 121.386719 210.46875 121.328125 Z M 185.136719 124.042969 C 184.402344 123.851562 183.84375 123.210938 183.792969 122.414062 C 183.726562 121.414062 184.480469 120.554688 185.476562 120.488281 C 189.617188 120.222656 193.863281 119.851562 198.09375 119.394531 C 199.085938 119.289062 199.976562 120.007812 200.085938 121 C 200.191406 121.988281 199.472656 122.882812 198.480469 122.988281 C 194.199219 123.449219 189.902344 123.824219 185.710938 124.097656 C 185.515625 124.109375 185.316406 124.089844 185.136719 124.042969 Z M 50.921875 92.582031 C 50.753906 92.535156 50.582031 92.464844 50.425781 92.367188 C 46.828125 90.128906 43.222656 87.738281 39.714844 85.265625 C 38.894531 84.6875 38.703125 83.5625 39.277344 82.746094 C 39.851562 81.929688 40.976562 81.734375 41.796875 82.308594 C 45.25 84.746094 48.792969 87.097656 52.335938 89.300781 C 53.179688 89.824219 53.441406 90.941406 52.914062 91.789062 C 52.484375 92.476562 51.667969 92.777344 50.921875 92.582031 Z M 159.664062 124.539062 C 158.871094 124.332031 158.292969 123.597656 158.320312 122.742188 C 158.34375 121.742188 159.175781 120.957031 160.175781 120.984375 C 164.324219 121.105469 168.582031 121.121094 172.828125 121.035156 C 173.824219 121.015625 174.652344 121.804688 174.671875 122.804688 C 174.691406 123.804688 173.898438 124.628906 172.902344 124.648438 C 168.597656 124.734375 164.28125 124.71875 160.070312 124.597656 C 159.933594 124.59375 159.796875 124.574219 159.664062 124.539062 Z M 73.324219 104.734375 C 73.222656 104.707031 73.117188 104.671875 73.015625 104.621094 C 69.160156 102.824219 65.296875 100.875 61.535156 98.835938 C 60.65625 98.359375 60.332031 97.261719 60.808594 96.386719 C 61.285156 95.507812 62.378906 95.183594 63.257812 95.660156 C 66.957031 97.664062 70.753906 99.582031 74.542969 101.347656 C 75.445312 101.769531 75.839844 102.84375 75.414062 103.75 C 75.042969 104.554688 74.152344 104.949219 73.324219 104.734375 Z M 134.277344 122.484375 C 133.402344 122.253906 132.820312 121.40625 132.945312 120.492188 C 133.078125 119.503906 133.988281 118.8125 134.976562 118.949219 C 139.101562 119.507812 143.328125 119.960938 147.546875 120.300781 C 148.535156 120.382812 149.28125 121.25 149.203125 122.246094 C 149.121094 123.238281 148.25 123.984375 147.257812 123.902344 C 142.972656 123.558594 138.679688 123.09375 134.488281 122.527344 C 134.417969 122.519531 134.34375 122.5 134.277344 122.484375 Z M 97.035156 114.054688 C 97.003906 114.046875 96.96875 114.035156 96.9375 114.027344 C 92.871094 112.710938 88.796875 111.253906 84.828125 109.695312 C 83.902344 109.328125 83.445312 108.277344 83.808594 107.351562 C 84.175781 106.421875 85.226562 105.964844 86.152344 106.332031 C 90.050781 107.863281 94.054688 109.296875 98.046875 110.589844 C 98.996094 110.894531 99.515625 111.914062 99.210938 112.863281 C 98.914062 113.777344 97.957031 114.292969 97.035156 114.054688 Z M 109.277344 117.605469 C 108.316406 117.355469 107.734375 116.371094 107.984375 115.410156 C 108.230469 114.441406 109.21875 113.859375 110.183594 114.109375 C 114.222656 115.148438 118.371094 116.082031 122.507812 116.886719 C 123.488281 117.082031 124.125 118.03125 123.9375 119.007812 C 123.746094 119.988281 122.792969 120.625 121.816406 120.4375 C 117.609375 119.617188 113.394531 118.664062 109.28125 117.605469 C 109.277344 117.605469 109.277344 117.605469 109.277344 117.605469 " fill-opacity="1" fill-rule="nonzero"/></g></g></g><g clip-path="url(#8d55acc4df)"><g clip-path="url(#08351549bc)"><g clip-path="url(#9cd5213399)"><path fill="#0c4a6e" d="M 332.429688 85.28125 C 331.898438 85.144531 331.4375 84.765625 331.210938 84.222656 C 330.835938 83.296875 331.273438 82.242188 332.199219 81.863281 C 334.195312 81.039062 336.230469 80.191406 338.25 79.34375 C 339.171875 78.957031 340.230469 79.390625 340.617188 80.308594 C 341 81.230469 340.570312 82.289062 339.648438 82.675781 C 337.621094 83.527344 335.578125 84.378906 333.570312 85.203125 C 333.195312 85.359375 332.796875 85.378906 332.429688 85.28125 " fill-opacity="1" fill-rule="nonzero"/></g></g></g><g clip-path="url(#433e7b4fe6)"><g clip-path="url(#2be86931f7)"><g clip-path="url(#8e88a99280)"><path fill="#0c4a6e" d="M 361.714844 30.390625 C 357.277344 29.226562 352.714844 31.894531 351.554688 36.335938 C 350.394531 40.777344 353.0625 45.332031 357.503906 46.492188 C 361.945312 47.65625 366.5 44.988281 367.664062 40.546875 C 368.824219 36.109375 366.15625 31.550781 361.714844 30.390625 Z M 356.757812 49.351562 C 350.738281 47.78125 347.121094 41.605469 348.695312 35.585938 C 350.269531 29.570312 356.445312 25.953125 362.464844 27.527344 C 368.480469 29.101562 372.09375 35.277344 370.519531 41.296875 C 368.949219 47.3125 362.773438 50.925781 356.757812 49.351562 Z M 363.996094 21.667969 C 361.828125 21.101562 359.613281 20.976562 357.417969 21.296875 C 355.292969 21.605469 353.273438 22.3125 351.414062 23.402344 C 349.554688 24.488281 347.949219 25.90625 346.640625 27.605469 C 345.285156 29.363281 344.308594 31.355469 343.742188 33.523438 C 342.761719 37.277344 342.65625 41.203125 343.425781 45.191406 C 344.039062 48.394531 345.222656 51.644531 346.941406 54.859375 C 349.324219 59.324219 352.109375 62.484375 353.054688 63.5 C 354.375 63.078125 358.367188 61.675781 362.617188 58.957031 C 365.6875 57 368.3125 54.742188 370.421875 52.25 C 373.042969 49.148438 374.867188 45.671875 375.851562 41.921875 C 376.417969 39.753906 376.542969 37.539062 376.222656 35.339844 C 375.914062 33.21875 375.207031 31.199219 374.117188 29.339844 C 373.027344 27.480469 371.613281 25.871094 369.914062 24.5625 C 368.152344 23.207031 366.164062 22.234375 363.996094 21.667969 Z M 352.273438 66.5 C 351.910156 66.40625 351.578125 66.214844 351.3125 65.953125 C 351.285156 65.925781 347.492188 62.167969 344.332031 56.25 C 342.476562 52.78125 341.195312 49.242188 340.519531 45.75 C 339.667969 41.324219 339.789062 36.960938 340.882812 32.777344 C 341.550781 30.222656 342.699219 27.878906 344.296875 25.800781 C 345.839844 23.796875 347.730469 22.128906 349.917969 20.851562 C 352.113281 19.566406 354.492188 18.734375 356.992188 18.371094 C 359.582031 17.992188 362.191406 18.140625 364.746094 18.808594 C 367.296875 19.476562 369.644531 20.625 371.71875 22.222656 C 373.71875 23.761719 375.386719 25.652344 376.667969 27.84375 C 377.953125 30.035156 378.789062 32.414062 379.148438 34.914062 C 379.527344 37.503906 379.378906 40.113281 378.710938 42.667969 C 377.617188 46.851562 375.585938 50.71875 372.679688 54.160156 C 370.378906 56.875 367.53125 59.332031 364.210938 61.449219 C 358.628906 65.019531 353.589844 66.433594 353.378906 66.492188 C 353.011719 66.59375 352.632812 66.59375 352.273438 66.5 " fill-opacity="1" fill-rule="nonzero"/></g></g></g><g clip-path="url(#f323eb72a4)"><g clip-path="url(#19846e5e55)"><g clip-path="url(#81d018da0d)"><path fill="#0c4a6e" d="M 350.183594 74.492188 C 349.078125 74.207031 347.945312 74.867188 347.660156 75.972656 C 347.371094 77.074219 348.03125 78.207031 349.136719 78.496094 C 350.238281 78.78125 351.371094 78.121094 351.660156 77.015625 C 351.949219 75.914062 351.285156 74.78125 350.183594 74.492188 Z M 348.386719 81.355469 C 345.707031 80.65625 344.09375 77.902344 344.796875 75.222656 C 345.496094 72.542969 348.25 70.933594 350.929688 71.632812 C 353.609375 72.335938 355.21875 75.082031 354.519531 77.765625 C 353.816406 80.445312 351.070312 82.058594 348.386719 81.355469 " fill-opacity="1" fill-rule="nonzero"/></g></g></g><g clip-path="url(#9c50275ae1)"><g clip-path="url(#ab586e0149)"><g clip-path="url(#0cf3fde8c0)"><path fill="#0c4a6e" d="M 30.257812 19.527344 C 25.820312 18.367188 21.261719 21.03125 20.101562 25.472656 C 18.9375 29.914062 21.605469 34.472656 26.046875 35.632812 C 30.488281 36.796875 35.042969 34.128906 36.207031 29.683594 C 37.367188 25.246094 34.699219 20.6875 30.257812 19.527344 Z M 25.300781 38.492188 C 19.285156 36.917969 15.667969 30.742188 17.242188 24.726562 C 18.816406 18.710938 24.992188 15.09375 31.007812 16.667969 C 37.023438 18.242188 40.640625 24.417969 39.066406 30.433594 C 37.492188 36.453125 31.316406 40.066406 25.300781 38.492188 Z M 32.539062 10.808594 C 30.371094 10.242188 28.160156 10.117188 25.964844 10.433594 C 23.839844 10.742188 21.820312 11.449219 19.960938 12.539062 C 18.097656 13.628906 16.492188 15.042969 15.183594 16.746094 C 13.828125 18.503906 12.855469 20.492188 12.289062 22.664062 C 11.308594 26.417969 11.199219 30.339844 11.96875 34.328125 C 12.585938 37.53125 13.769531 40.785156 15.484375 43.996094 C 17.863281 48.453125 20.652344 51.621094 21.601562 52.636719 C 22.925781 52.214844 26.914062 50.8125 31.164062 48.097656 C 34.234375 46.136719 36.855469 43.882812 38.964844 41.386719 C 41.589844 38.289062 43.414062 34.8125 44.394531 31.058594 C 44.960938 28.894531 45.085938 26.679688 44.769531 24.480469 C 44.460938 22.359375 43.75 20.339844 42.664062 18.476562 C 41.574219 16.617188 40.160156 15.011719 38.457031 13.703125 C 36.699219 12.347656 34.707031 11.375 32.539062 10.808594 Z M 20.816406 55.640625 C 20.453125 55.542969 20.121094 55.355469 19.855469 55.089844 C 19.824219 55.058594 16.042969 51.320312 12.875 45.390625 C 11.023438 41.917969 9.738281 38.382812 9.066406 34.890625 C 8.210938 30.464844 8.332031 26.101562 9.425781 21.914062 C 10.09375 19.363281 11.242188 17.015625 12.839844 14.941406 C 14.382812 12.9375 16.273438 11.269531 18.464844 9.988281 C 20.65625 8.707031 23.035156 7.871094 25.539062 7.511719 C 28.128906 7.132812 30.734375 7.28125 33.285156 7.949219 C 35.839844 8.617188 38.1875 9.765625 40.261719 11.359375 C 42.265625 12.898438 43.929688 14.792969 45.214844 16.984375 C 46.496094 19.175781 47.328125 21.554688 47.695312 24.054688 C 48.070312 26.644531 47.921875 29.253906 47.253906 31.808594 C 46.160156 35.992188 44.132812 39.859375 41.222656 43.296875 C 38.921875 46.015625 36.070312 48.46875 32.757812 50.589844 C 27.171875 54.15625 22.136719 55.570312 21.921875 55.632812 C 21.558594 55.730469 21.175781 55.734375 20.816406 55.640625 " fill-opacity="1" fill-rule="nonzero"/></g></g></g><g clip-path="url(#be2ba7a1d9)"><g clip-path="url(#e83c669c4f)"><g clip-path="url(#5a5a88088e)"><path fill="#0c4a6e" d="M 18.726562 63.632812 C 17.621094 63.34375 16.488281 64.007812 16.199219 65.109375 C 15.914062 66.214844 16.574219 67.347656 17.679688 67.632812 C 18.78125 67.921875 19.914062 67.261719 20.203125 66.15625 C 20.492188 65.054688 19.828125 63.921875 18.726562 63.632812 Z M 16.929688 70.492188 C 14.25 69.792969 12.640625 67.042969 13.339844 64.363281 C 14.042969 61.683594 16.792969 60.070312 19.472656 60.769531 C 22.15625 61.472656 23.765625 64.222656 23.0625 66.90625 C 22.363281 69.585938 19.613281 71.195312 16.929688 70.492188 " fill-opacity="1" fill-rule="nonzero"/></g></g></g><g transform="matrix(1, 0, 0, 1, 29, -0.000000000000003367)"><g clip-path="url(#66c63b06f1)"><g fill="#5ce1e6" fill-opacity="0.502"><g transform="translate(12.442381, 75.282066)"><g><path d="M 51.578125 -33.390625 C 50.140625 -29.398438 48.304688 -25.117188 46.078125 -20.546875 C 43.847656 -15.972656 41.335938 -11.664062 38.546875 -7.625 C 35.765625 -3.582031 32.828125 -0.351562 29.734375 2.0625 C 26.640625 4.476562 23.503906 5.523438 20.328125 5.203125 C 17.972656 4.804688 16.113281 3.253906 14.75 0.546875 C 13.394531 -2.148438 12.441406 -5.539062 11.890625 -9.625 C 11.347656 -13.707031 11.132812 -18.003906 11.25 -22.515625 C 11.375 -27.035156 11.726562 -31.3125 12.3125 -35.34375 C 12.894531 -39.382812 13.640625 -42.703125 14.546875 -45.296875 C 15.035156 -46.523438 15.875 -47.273438 17.0625 -47.546875 C 18.25 -47.828125 19.476562 -47.734375 20.75 -47.265625 C 22.019531 -46.796875 23.007812 -46.070312 23.71875 -45.09375 C 24.4375 -44.125 24.578125 -43.03125 24.140625 -41.8125 C 23.222656 -39.601562 22.394531 -36.445312 21.65625 -32.34375 C 20.925781 -28.238281 20.4375 -23.941406 20.1875 -19.453125 C 19.945312 -14.960938 20.117188 -11.046875 20.703125 -7.703125 C 21.285156 -4.359375 22.453125 -2.351562 24.203125 -1.6875 C 25.410156 -1.414062 27.320312 -2.757812 29.9375 -5.71875 C 32.5625 -8.6875 35.15625 -12.726562 37.71875 -17.84375 C 40.28125 -22.96875 42.070312 -28.660156 43.09375 -34.921875 C 43.351562 -36.378906 44 -37.375 45.03125 -37.90625 C 46.070312 -38.445312 47.1875 -38.601562 48.375 -38.375 C 49.5625 -38.144531 50.5 -37.59375 51.1875 -36.71875 C 51.882812 -35.851562 52.015625 -34.742188 51.578125 -33.390625 Z M 51.578125 -33.390625 "/></g></g></g><g fill="#5ce1e6" fill-opacity="0.502"><g transform="translate(54.252956, 87.887596)"><g><path d="M 18.34375 -39.953125 C 18.269531 -39.523438 18.113281 -38.898438 17.875 -38.078125 C 17.644531 -37.265625 17.394531 -36.46875 17.125 -35.6875 C 16.863281 -34.90625 16.625 -34.375 16.40625 -34.09375 C 15.445312 -33.039062 14.175781 -32.679688 12.59375 -33.015625 C 11.007812 -33.347656 9.898438 -34.160156 9.265625 -35.453125 C 9.148438 -35.859375 9.113281 -36.472656 9.15625 -37.296875 C 9.195312 -38.128906 9.269531 -38.96875 9.375 -39.8125 C 9.488281 -40.664062 9.597656 -41.332031 9.703125 -41.8125 C 10.078125 -43.070312 11.003906 -43.757812 12.484375 -43.875 C 13.972656 -44 15.363281 -43.703125 16.65625 -42.984375 C 17.957031 -42.265625 18.519531 -41.253906 18.34375 -39.953125 Z M 6.609375 -26.125 C 7.078125 -27.601562 8.007812 -28.410156 9.40625 -28.546875 C 10.8125 -28.691406 12.085938 -28.367188 13.234375 -27.578125 C 14.378906 -26.785156 14.816406 -25.726562 14.546875 -24.40625 C 13.503906 -20.675781 12.5625 -16.992188 11.71875 -13.359375 C 11.007812 -10.328125 10.269531 -7.351562 9.5 -4.4375 C 9.164062 -3.507812 8.425781 -2.976562 7.28125 -2.84375 C 6.144531 -2.71875 5.070312 -2.941406 4.0625 -3.515625 C 3.0625 -4.097656 2.597656 -5.003906 2.671875 -6.234375 C 3.023438 -9.023438 3.585938 -12.320312 4.359375 -16.125 C 5.140625 -19.925781 5.890625 -23.257812 6.609375 -26.125 Z M 6.609375 -26.125 "/></g></g></g><g fill="#5ce1e6" fill-opacity="0.502"><g transform="translate(66.931374, 91.030294)"><g><path d="M 5.625 -4.046875 C 4.957031 -5.546875 4.992188 -6.726562 5.734375 -7.59375 C 6.472656 -8.457031 7.382812 -8.851562 8.46875 -8.78125 C 9.550781 -8.707031 10.289062 -8.019531 10.6875 -6.71875 C 11.132812 -5.101562 11.910156 -4.085938 13.015625 -3.671875 C 14.117188 -3.265625 15.128906 -3.328125 16.046875 -3.859375 C 16.960938 -4.398438 17.347656 -5.285156 17.203125 -6.515625 C 17.046875 -7.347656 16.550781 -8.179688 15.71875 -9.015625 C 14.894531 -9.847656 13.894531 -10.71875 12.71875 -11.625 C 11.070312 -12.875 9.503906 -14.316406 8.015625 -15.953125 C 6.523438 -17.597656 5.59375 -19.550781 5.21875 -21.8125 C 4.863281 -25.601562 5.703125 -28.570312 7.734375 -30.71875 C 9.773438 -32.863281 12.300781 -34.132812 15.3125 -34.53125 C 18.332031 -34.925781 21.132812 -34.394531 23.71875 -32.9375 C 26.3125 -31.476562 27.984375 -29.03125 28.734375 -25.59375 C 28.972656 -23.851562 28.570312 -22.695312 27.53125 -22.125 C 26.5 -21.5625 25.410156 -21.4375 24.265625 -21.75 C 23.128906 -22.0625 22.519531 -22.6875 22.4375 -23.625 C 22.394531 -26.707031 21.675781 -28.628906 20.28125 -29.390625 C 18.882812 -30.160156 17.453125 -30.066406 15.984375 -29.109375 C 14.515625 -28.160156 13.648438 -26.671875 13.390625 -24.640625 C 13.304688 -22.773438 13.820312 -21.164062 14.9375 -19.8125 C 16.0625 -18.46875 17.390625 -17.195312 18.921875 -16 C 20.773438 -14.59375 22.316406 -13.019531 23.546875 -11.28125 C 24.785156 -9.539062 25.070312 -7.363281 24.40625 -4.75 C 23.53125 -2.144531 21.832031 -0.414062 19.3125 0.4375 C 16.789062 1.300781 14.195312 1.34375 11.53125 0.5625 C 8.875 -0.207031 6.90625 -1.742188 5.625 -4.046875 Z M 5.625 -4.046875 "/></g></g></g><g fill="#5ce1e6" fill-opacity="0.502"><g transform="translate(95.55002, 95.637879)"><g><path d="M 13.53125 -41.828125 C 13.5 -41.398438 13.410156 -40.765625 13.265625 -39.921875 C 13.128906 -39.085938 12.976562 -38.265625 12.8125 -37.453125 C 12.644531 -36.640625 12.472656 -36.085938 12.296875 -35.796875 C 11.460938 -34.628906 10.238281 -34.113281 8.625 -34.25 C 7.007812 -34.394531 5.816406 -35.082031 5.046875 -36.3125 C 4.878906 -36.695312 4.765625 -37.300781 4.703125 -38.125 C 4.640625 -38.957031 4.613281 -39.800781 4.625 -40.65625 C 4.632812 -41.507812 4.664062 -42.175781 4.71875 -42.65625 C 4.9375 -43.957031 5.773438 -44.753906 7.234375 -45.046875 C 8.691406 -45.335938 10.109375 -45.203125 11.484375 -44.640625 C 12.859375 -44.078125 13.539062 -43.140625 13.53125 -41.828125 Z M 3.5 -26.734375 C 3.78125 -28.253906 4.609375 -29.164062 5.984375 -29.46875 C 7.359375 -29.769531 8.660156 -29.59375 9.890625 -28.9375 C 11.128906 -28.289062 11.6875 -27.289062 11.5625 -25.9375 C 10.96875 -22.113281 10.46875 -18.347656 10.0625 -14.640625 C 9.71875 -11.546875 9.335938 -8.503906 8.921875 -5.515625 C 8.691406 -4.554688 8.015625 -3.945312 6.890625 -3.6875 C 5.773438 -3.425781 4.679688 -3.519531 3.609375 -3.96875 C 2.546875 -4.425781 1.984375 -5.269531 1.921875 -6.5 C 1.953125 -9.320312 2.125 -12.664062 2.4375 -16.53125 C 2.757812 -20.394531 3.113281 -23.796875 3.5 -26.734375 Z M 3.5 -26.734375 "/></g></g></g><g fill="#5ce1e6" fill-opacity="0.502"><g transform="translate(109.964292, 97.373062)"><g><path d="M 18.125 -11.296875 C 18.320312 -12.359375 18.929688 -12.972656 19.953125 -13.140625 C 20.984375 -13.316406 21.960938 -13.128906 22.890625 -12.578125 C 23.828125 -12.035156 24.242188 -11.21875 24.140625 -10.125 C 23.585938 -7.269531 22.378906 -5.039062 20.515625 -3.4375 C 18.660156 -1.832031 16.535156 -0.96875 14.140625 -0.84375 C 11.753906 -0.726562 9.507812 -1.492188 7.40625 -3.140625 C 5.3125 -4.785156 3.75 -7.445312 2.71875 -11.125 C 1.78125 -15.40625 1.382812 -20.671875 1.53125 -26.921875 C 1.6875 -33.179688 2.015625 -38.53125 2.515625 -42.96875 C 2.773438 -44.5 3.65625 -45.347656 5.15625 -45.515625 C 6.65625 -45.679688 8.09375 -45.390625 9.46875 -44.640625 C 10.84375 -43.890625 11.5 -42.875 11.4375 -41.59375 C 11.332031 -40.957031 11.203125 -40.203125 11.046875 -39.328125 C 10.765625 -37.753906 10.484375 -35.976562 10.203125 -34 C 9.929688 -32.019531 9.796875 -30.097656 9.796875 -28.234375 L 19.015625 -27.984375 C 19.992188 -27.867188 20.617188 -27.367188 20.890625 -26.484375 C 21.160156 -25.597656 21.117188 -24.722656 20.765625 -23.859375 C 20.421875 -22.992188 19.757812 -22.585938 18.78125 -22.640625 C 18.082031 -22.710938 17.410156 -22.800781 16.765625 -22.90625 C 15.378906 -23.164062 14.160156 -23.253906 13.109375 -23.171875 C 12.066406 -23.097656 11.238281 -22.585938 10.625 -21.640625 C 10.019531 -20.703125 9.660156 -19.050781 9.546875 -16.6875 C 9.492188 -12.09375 10.097656 -8.945312 11.359375 -7.25 C 12.617188 -5.5625 13.957031 -5.109375 15.375 -5.890625 C 16.789062 -6.671875 17.707031 -8.472656 18.125 -11.296875 Z M 18.125 -11.296875 "/></g></g></g><g fill="#5ce1e6" fill-opacity="0.502"><g transform="translate(136.922056, 98.736541)"><g><path d="M 19.046875 -25.65625 C 19.285156 -27.46875 19.113281 -29.03125 18.53125 -30.34375 C 17.957031 -31.65625 17.070312 -32.460938 15.875 -32.765625 C 13.894531 -33.097656 12.25 -32.59375 10.9375 -31.25 C 9.625 -29.90625 8.773438 -28.253906 8.390625 -26.296875 C 8.015625 -24.335938 8.1875 -22.613281 8.90625 -21.125 C 9.800781 -19.5625 10.960938 -18.742188 12.390625 -18.671875 C 13.828125 -18.609375 15.1875 -19.179688 16.46875 -20.390625 C 17.75 -21.597656 18.609375 -23.351562 19.046875 -25.65625 Z M 8.46875 -15.5 C 9.019531 -11.945312 10.140625 -9.617188 11.828125 -8.515625 C 13.523438 -7.410156 15.125 -7.117188 16.625 -7.640625 C 18.132812 -8.171875 19.066406 -9.382812 19.421875 -11.28125 C 19.585938 -12.507812 20.140625 -13.257812 21.078125 -13.53125 C 22.023438 -13.8125 22.929688 -13.722656 23.796875 -13.265625 C 24.660156 -12.816406 25.0625 -12.125 25 -11.1875 C 24.582031 -8.90625 23.4375 -6.992188 21.5625 -5.453125 C 19.6875 -3.910156 17.273438 -3.1875 14.328125 -3.28125 C 11.378906 -3.375 8.675781 -4.34375 6.21875 -6.1875 C 3.769531 -8.039062 2.019531 -10.597656 0.96875 -13.859375 C -0.0703125 -17.117188 -0.363281 -20.46875 0.09375 -23.90625 C 0.5625 -27.34375 1.851562 -30.316406 3.96875 -32.828125 C 6.09375 -35.347656 9.097656 -36.867188 12.984375 -37.390625 C 16.484375 -37.691406 19.289062 -37.054688 21.40625 -35.484375 C 23.519531 -33.921875 24.878906 -31.90625 25.484375 -29.4375 C 26.085938 -26.976562 25.882812 -24.550781 24.875 -22.15625 C 23.875 -19.769531 22.015625 -17.90625 19.296875 -16.5625 C 16.585938 -15.21875 12.976562 -14.863281 8.46875 -15.5 Z M 8.46875 -15.5 "/></g></g></g><g fill="#5ce1e6" fill-opacity="0.502"><g transform="translate(168.559345, 97.44681)"><g/></g></g><g fill="#5ce1e6" fill-opacity="0.502"><g transform="translate(187.88948, 95.583659)"><g><path d="M -8.09375 -49.34375 C -8.0625 -50.695312 -7.535156 -51.691406 -6.515625 -52.328125 C -5.492188 -52.960938 -4.300781 -53.28125 -2.9375 -53.28125 C -1.570312 -53.289062 -0.390625 -52.992188 0.609375 -52.390625 C 1.609375 -51.785156 2.09375 -50.925781 2.0625 -49.8125 C 1.78125 -45.445312 1.988281 -40.046875 2.6875 -33.609375 C 3.394531 -27.171875 4.359375 -21.0625 5.578125 -15.28125 C 6.085938 -12.78125 6.929688 -11.175781 8.109375 -10.46875 C 9.285156 -9.757812 10.882812 -9.679688 12.90625 -10.234375 C 14.9375 -10.796875 17.453125 -11.722656 20.453125 -13.015625 C 21.941406 -13.484375 23.085938 -13.15625 23.890625 -12.03125 C 24.703125 -10.90625 24.976562 -9.640625 24.71875 -8.234375 C 24.46875 -6.828125 23.460938 -5.945312 21.703125 -5.59375 C 19.003906 -5.164062 16.535156 -4.660156 14.296875 -4.078125 C 11.585938 -3.347656 9.179688 -2.925781 7.078125 -2.8125 C 4.984375 -2.695312 3.191406 -3.363281 1.703125 -4.8125 C 0.210938 -6.269531 -0.992188 -8.976562 -1.921875 -12.9375 C -2.953125 -17.425781 -3.925781 -22.285156 -4.84375 -27.515625 C -5.757812 -32.742188 -6.519531 -37.410156 -7.125 -41.515625 C -7.738281 -45.617188 -8.0625 -48.226562 -8.09375 -49.34375 Z M -8.09375 -49.34375 "/></g></g></g><g fill="#5ce1e6" fill-opacity="0.502"><g transform="translate(216.985775, 90.462985)"><g><path d="M 9.9375 -7.3125 C 12.09375 -7.40625 13.59375 -8.34375 14.4375 -10.125 C 15.28125 -11.914062 15.554688 -13.941406 15.265625 -16.203125 C 14.984375 -18.472656 14.25 -20.363281 13.0625 -21.875 C 11.875 -23.394531 10.304688 -23.945312 8.359375 -23.53125 C 6.460938 -22.9375 5.144531 -21.796875 4.40625 -20.109375 C 3.675781 -18.421875 3.441406 -16.59375 3.703125 -14.625 C 3.972656 -12.65625 4.644531 -10.960938 5.71875 -9.546875 C 6.789062 -8.140625 8.195312 -7.394531 9.9375 -7.3125 Z M 11.953125 -28.453125 C 10.378906 -32.285156 8.648438 -34.609375 6.765625 -35.421875 C 4.890625 -36.242188 3.300781 -36.023438 2 -34.765625 C 0.707031 -33.515625 0.179688 -31.722656 0.421875 -29.390625 C 0.515625 -28.085938 0.046875 -27.203125 -0.984375 -26.734375 C -2.023438 -26.265625 -3.097656 -26.179688 -4.203125 -26.484375 C -5.304688 -26.796875 -5.9375 -27.4375 -6.09375 -28.40625 C -6.132812 -31.445312 -5.0625 -33.945312 -2.875 -35.90625 C -0.6875 -37.875 1.972656 -39.054688 5.109375 -39.453125 C 8.066406 -39.753906 10.671875 -39.140625 12.921875 -37.609375 C 15.179688 -36.085938 17.050781 -34.003906 18.53125 -31.359375 C 20.019531 -28.710938 21.082031 -25.859375 21.71875 -22.796875 C 22.300781 -20.148438 22.484375 -17.539062 22.265625 -14.96875 C 22.046875 -12.40625 21.234375 -10.128906 19.828125 -8.140625 C 18.421875 -6.160156 16.210938 -4.710938 13.203125 -3.796875 C 9.648438 -2.859375 6.585938 -3.003906 4.015625 -4.234375 C 1.453125 -5.472656 -0.445312 -7.316406 -1.6875 -9.765625 C -2.925781 -12.222656 -3.332031 -14.816406 -2.90625 -17.546875 C -2.476562 -20.285156 -1.078125 -22.679688 1.296875 -24.734375 C 3.679688 -26.796875 7.234375 -28.035156 11.953125 -28.453125 Z M 11.953125 -28.453125 "/></g></g></g><g fill="#5ce1e6" fill-opacity="0.502"><g transform="translate(248.819669, 81.954532)"><g><path d="M -11.125 -30.546875 C -11.519531 -32.234375 -11.140625 -33.53125 -9.984375 -34.4375 C -8.835938 -35.351562 -7.535156 -35.71875 -6.078125 -35.53125 C -4.628906 -35.34375 -3.65625 -34.4375 -3.15625 -32.8125 C -1.664062 -35.320312 0.0703125 -37.148438 2.0625 -38.296875 C 4.050781 -39.453125 6.117188 -39.953125 8.265625 -39.796875 C 10.960938 -39.503906 13.351562 -38.234375 15.4375 -35.984375 C 17.519531 -33.734375 19.03125 -31.015625 19.96875 -27.828125 C 20.914062 -24.648438 21.035156 -21.53125 20.328125 -18.46875 C 19.628906 -15.40625 17.847656 -12.925781 14.984375 -11.03125 C 13.234375 -9.976562 11.5 -9.378906 9.78125 -9.234375 C 8.070312 -9.097656 6.769531 -9.3125 5.875 -9.875 C 6.25 -8.75 6.78125 -7.253906 7.46875 -5.390625 C 8.113281 -3.640625 8.753906 -1.882812 9.390625 -0.125 C 10.023438 1.625 10.535156 3.054688 10.921875 4.171875 C 11.234375 5.359375 10.957031 6.382812 10.09375 7.25 C 9.226562 8.113281 8.207031 8.59375 7.03125 8.6875 C 5.851562 8.78125 4.957031 8.257812 4.34375 7.125 C 2.9375 4.132812 1.09375 -0.0820312 -1.1875 -5.53125 C -3.46875 -10.988281 -5.585938 -16.175781 -7.546875 -21.09375 C -9.503906 -26.019531 -10.695312 -29.171875 -11.125 -30.546875 Z M 11.78125 -28 C 10.5625 -30.582031 9.140625 -32.28125 7.515625 -33.09375 C 5.890625 -33.90625 4.382812 -33.957031 3 -33.25 C 1.613281 -32.539062 0.691406 -31.195312 0.234375 -29.21875 C -0.222656 -27.25 0.09375 -24.769531 1.1875 -21.78125 C 2.613281 -18.351562 4.234375 -16.050781 6.046875 -14.875 C 7.867188 -13.695312 9.503906 -13.484375 10.953125 -14.234375 C 12.398438 -14.984375 13.285156 -16.546875 13.609375 -18.921875 C 13.941406 -21.304688 13.332031 -24.332031 11.78125 -28 Z M 11.78125 -28 "/></g></g></g><g fill="#5ce1e6" fill-opacity="0.502"><g transform="translate(279.291154, 70.65765)"><g><path d="M 8.4375 -9.015625 C 10.539062 -9.484375 11.84375 -10.675781 12.34375 -12.59375 C 12.851562 -14.519531 12.757812 -16.566406 12.0625 -18.734375 C 11.363281 -20.898438 10.289062 -22.617188 8.84375 -23.890625 C 7.394531 -25.171875 5.757812 -25.425781 3.9375 -24.65625 C 2.175781 -23.726562 1.085938 -22.367188 0.671875 -20.578125 C 0.253906 -18.785156 0.351562 -16.945312 0.96875 -15.0625 C 1.59375 -13.175781 2.5625 -11.632812 3.875 -10.4375 C 5.195312 -9.238281 6.71875 -8.765625 8.4375 -9.015625 Z M 6.5625 -30.15625 C 4.320312 -33.632812 2.195312 -35.601562 0.1875 -36.0625 C -1.8125 -36.53125 -3.332031 -36.023438 -4.375 -34.546875 C -5.414062 -33.078125 -5.609375 -31.21875 -4.953125 -28.96875 C -4.617188 -27.707031 -4.914062 -26.753906 -5.84375 -26.109375 C -6.78125 -25.460938 -7.816406 -25.1875 -8.953125 -25.28125 C -10.085938 -25.375 -10.820312 -25.882812 -11.15625 -26.8125 C -11.769531 -29.800781 -11.175781 -32.457031 -9.375 -34.78125 C -7.570312 -37.113281 -5.171875 -38.757812 -2.171875 -39.71875 C 0.679688 -40.550781 3.351562 -40.425781 5.84375 -39.34375 C 8.34375 -38.257812 10.5625 -36.550781 12.5 -34.21875 C 14.445312 -31.882812 16.015625 -29.269531 17.203125 -26.375 C 18.253906 -23.875 18.90625 -21.34375 19.15625 -18.78125 C 19.40625 -16.21875 19.019531 -13.832031 18 -11.625 C 16.988281 -9.425781 15.082031 -7.601562 12.28125 -6.15625 C 8.957031 -4.582031 5.921875 -4.164062 3.171875 -4.90625 C 0.421875 -5.644531 -1.78125 -7.109375 -3.4375 -9.296875 C -5.101562 -11.484375 -5.976562 -13.960938 -6.0625 -16.734375 C -6.144531 -19.503906 -5.195312 -22.113281 -3.21875 -24.5625 C -1.25 -27.019531 2.007812 -28.882812 6.5625 -30.15625 Z M 6.5625 -30.15625 "/></g></g></g><g fill="#5ce1e6" fill-opacity="0.302"><g transform="translate(13.150333, 76.926163)"><g><path d="M 51.578125 -33.390625 C 50.140625 -29.398438 48.304688 -25.117188 46.078125 -20.546875 C 43.847656 -15.972656 41.335938 -11.664062 38.546875 -7.625 C 35.765625 -3.582031 32.828125 -0.351562 29.734375 2.0625 C 26.640625 4.476562 23.503906 5.523438 20.328125 5.203125 C 17.972656 4.804688 16.113281 3.253906 14.75 0.546875 C 13.394531 -2.148438 12.441406 -5.539062 11.890625 -9.625 C 11.347656 -13.707031 11.132812 -18.003906 11.25 -22.515625 C 11.375 -27.035156 11.726562 -31.3125 12.3125 -35.34375 C 12.894531 -39.382812 13.640625 -42.703125 14.546875 -45.296875 C 15.035156 -46.523438 15.875 -47.273438 17.0625 -47.546875 C 18.25 -47.828125 19.476562 -47.734375 20.75 -47.265625 C 22.019531 -46.796875 23.007812 -46.070312 23.71875 -45.09375 C 24.4375 -44.125 24.578125 -43.03125 24.140625 -41.8125 C 23.222656 -39.601562 22.394531 -36.445312 21.65625 -32.34375 C 20.925781 -28.238281 20.4375 -23.941406 20.1875 -19.453125 C 19.945312 -14.960938 20.117188 -11.046875 20.703125 -7.703125 C 21.285156 -4.359375 22.453125 -2.351562 24.203125 -1.6875 C 25.410156 -1.414062 27.320312 -2.757812 29.9375 -5.71875 C 32.5625 -8.6875 35.15625 -12.726562 37.71875 -17.84375 C 40.28125 -22.96875 42.070312 -28.660156 43.09375 -34.921875 C 43.351562 -36.378906 44 -37.375 45.03125 -37.90625 C 46.070312 -38.445312 47.1875 -38.601562 48.375 -38.375 C 49.5625 -38.144531 50.5 -37.59375 51.1875 -36.71875 C 51.882812 -35.851562 52.015625 -34.742188 51.578125 -33.390625 Z M 51.578125 -33.390625 "/></g></g></g><g fill="#5ce1e6" fill-opacity="0.302"><g transform="translate(54.960915, 89.531692)"><g><path d="M 18.34375 -39.953125 C 18.269531 -39.523438 18.113281 -38.898438 17.875 -38.078125 C 17.644531 -37.265625 17.394531 -36.46875 17.125 -35.6875 C 16.863281 -34.90625 16.625 -34.375 16.40625 -34.09375 C 15.445312 -33.039062 14.175781 -32.679688 12.59375 -33.015625 C 11.007812 -33.347656 9.898438 -34.160156 9.265625 -35.453125 C 9.148438 -35.859375 9.113281 -36.472656 9.15625 -37.296875 C 9.195312 -38.128906 9.269531 -38.96875 9.375 -39.8125 C 9.488281 -40.664062 9.597656 -41.332031 9.703125 -41.8125 C 10.078125 -43.070312 11.003906 -43.757812 12.484375 -43.875 C 13.972656 -44 15.363281 -43.703125 16.65625 -42.984375 C 17.957031 -42.265625 18.519531 -41.253906 18.34375 -39.953125 Z M 6.609375 -26.125 C 7.078125 -27.601562 8.007812 -28.410156 9.40625 -28.546875 C 10.8125 -28.691406 12.085938 -28.367188 13.234375 -27.578125 C 14.378906 -26.785156 14.816406 -25.726562 14.546875 -24.40625 C 13.503906 -20.675781 12.5625 -16.992188 11.71875 -13.359375 C 11.007812 -10.328125 10.269531 -7.351562 9.5 -4.4375 C 9.164062 -3.507812 8.425781 -2.976562 7.28125 -2.84375 C 6.144531 -2.71875 5.070312 -2.941406 4.0625 -3.515625 C 3.0625 -4.097656 2.597656 -5.003906 2.671875 -6.234375 C 3.023438 -9.023438 3.585938 -12.320312 4.359375 -16.125 C 5.140625 -19.925781 5.890625 -23.257812 6.609375 -26.125 Z M 6.609375 -26.125 "/></g></g></g><g fill="#5ce1e6" fill-opacity="0.302"><g transform="translate(67.639333, 92.67439)"><g><path d="M 5.625 -4.046875 C 4.957031 -5.546875 4.992188 -6.726562 5.734375 -7.59375 C 6.472656 -8.457031 7.382812 -8.851562 8.46875 -8.78125 C 9.550781 -8.707031 10.289062 -8.019531 10.6875 -6.71875 C 11.132812 -5.101562 11.910156 -4.085938 13.015625 -3.671875 C 14.117188 -3.265625 15.128906 -3.328125 16.046875 -3.859375 C 16.960938 -4.398438 17.347656 -5.285156 17.203125 -6.515625 C 17.046875 -7.347656 16.550781 -8.179688 15.71875 -9.015625 C 14.894531 -9.847656 13.894531 -10.71875 12.71875 -11.625 C 11.070312 -12.875 9.503906 -14.316406 8.015625 -15.953125 C 6.523438 -17.597656 5.59375 -19.550781 5.21875 -21.8125 C 4.863281 -25.601562 5.703125 -28.570312 7.734375 -30.71875 C 9.773438 -32.863281 12.300781 -34.132812 15.3125 -34.53125 C 18.332031 -34.925781 21.132812 -34.394531 23.71875 -32.9375 C 26.3125 -31.476562 27.984375 -29.03125 28.734375 -25.59375 C 28.972656 -23.851562 28.570312 -22.695312 27.53125 -22.125 C 26.5 -21.5625 25.410156 -21.4375 24.265625 -21.75 C 23.128906 -22.0625 22.519531 -22.6875 22.4375 -23.625 C 22.394531 -26.707031 21.675781 -28.628906 20.28125 -29.390625 C 18.882812 -30.160156 17.453125 -30.066406 15.984375 -29.109375 C 14.515625 -28.160156 13.648438 -26.671875 13.390625 -24.640625 C 13.304688 -22.773438 13.820312 -21.164062 14.9375 -19.8125 C 16.0625 -18.46875 17.390625 -17.195312 18.921875 -16 C 20.773438 -14.59375 22.316406 -13.019531 23.546875 -11.28125 C 24.785156 -9.539062 25.070312 -7.363281 24.40625 -4.75 C 23.53125 -2.144531 21.832031 -0.414062 19.3125 0.4375 C 16.789062 1.300781 14.195312 1.34375 11.53125 0.5625 C 8.875 -0.207031 6.90625 -1.742188 5.625 -4.046875 Z M 5.625 -4.046875 "/></g></g></g><g fill="#5ce1e6" fill-opacity="0.302"><g transform="translate(96.257979, 97.281974)"><g><path d="M 13.53125 -41.828125 C 13.5 -41.398438 13.410156 -40.765625 13.265625 -39.921875 C 13.128906 -39.085938 12.976562 -38.265625 12.8125 -37.453125 C 12.644531 -36.640625 12.472656 -36.085938 12.296875 -35.796875 C 11.460938 -34.628906 10.238281 -34.113281 8.625 -34.25 C 7.007812 -34.394531 5.816406 -35.082031 5.046875 -36.3125 C 4.878906 -36.695312 4.765625 -37.300781 4.703125 -38.125 C 4.640625 -38.957031 4.613281 -39.800781 4.625 -40.65625 C 4.632812 -41.507812 4.664062 -42.175781 4.71875 -42.65625 C 4.9375 -43.957031 5.773438 -44.753906 7.234375 -45.046875 C 8.691406 -45.335938 10.109375 -45.203125 11.484375 -44.640625 C 12.859375 -44.078125 13.539062 -43.140625 13.53125 -41.828125 Z M 3.5 -26.734375 C 3.78125 -28.253906 4.609375 -29.164062 5.984375 -29.46875 C 7.359375 -29.769531 8.660156 -29.59375 9.890625 -28.9375 C 11.128906 -28.289062 11.6875 -27.289062 11.5625 -25.9375 C 10.96875 -22.113281 10.46875 -18.347656 10.0625 -14.640625 C 9.71875 -11.546875 9.335938 -8.503906 8.921875 -5.515625 C 8.691406 -4.554688 8.015625 -3.945312 6.890625 -3.6875 C 5.773438 -3.425781 4.679688 -3.519531 3.609375 -3.96875 C 2.546875 -4.425781 1.984375 -5.269531 1.921875 -6.5 C 1.953125 -9.320312 2.125 -12.664062 2.4375 -16.53125 C 2.757812 -20.394531 3.113281 -23.796875 3.5 -26.734375 Z M 3.5 -26.734375 "/></g></g></g><g fill="#5ce1e6" fill-opacity="0.302"><g transform="translate(110.672237, 99.01716)"><g><path d="M 18.125 -11.296875 C 18.320312 -12.359375 18.929688 -12.972656 19.953125 -13.140625 C 20.984375 -13.316406 21.960938 -13.128906 22.890625 -12.578125 C 23.828125 -12.035156 24.242188 -11.21875 24.140625 -10.125 C 23.585938 -7.269531 22.378906 -5.039062 20.515625 -3.4375 C 18.660156 -1.832031 16.535156 -0.96875 14.140625 -0.84375 C 11.753906 -0.726562 9.507812 -1.492188 7.40625 -3.140625 C 5.3125 -4.785156 3.75 -7.445312 2.71875 -11.125 C 1.78125 -15.40625 1.382812 -20.671875 1.53125 -26.921875 C 1.6875 -33.179688 2.015625 -38.53125 2.515625 -42.96875 C 2.773438 -44.5 3.65625 -45.347656 5.15625 -45.515625 C 6.65625 -45.679688 8.09375 -45.390625 9.46875 -44.640625 C 10.84375 -43.890625 11.5 -42.875 11.4375 -41.59375 C 11.332031 -40.957031 11.203125 -40.203125 11.046875 -39.328125 C 10.765625 -37.753906 10.484375 -35.976562 10.203125 -34 C 9.929688 -32.019531 9.796875 -30.097656 9.796875 -28.234375 L 19.015625 -27.984375 C 19.992188 -27.867188 20.617188 -27.367188 20.890625 -26.484375 C 21.160156 -25.597656 21.117188 -24.722656 20.765625 -23.859375 C 20.421875 -22.992188 19.757812 -22.585938 18.78125 -22.640625 C 18.082031 -22.710938 17.410156 -22.800781 16.765625 -22.90625 C 15.378906 -23.164062 14.160156 -23.253906 13.109375 -23.171875 C 12.066406 -23.097656 11.238281 -22.585938 10.625 -21.640625 C 10.019531 -20.703125 9.660156 -19.050781 9.546875 -16.6875 C 9.492188 -12.09375 10.097656 -8.945312 11.359375 -7.25 C 12.617188 -5.5625 13.957031 -5.109375 15.375 -5.890625 C 16.789062 -6.671875 17.707031 -8.472656 18.125 -11.296875 Z M 18.125 -11.296875 "/></g></g></g><g fill="#5ce1e6" fill-opacity="0.302"><g transform="translate(137.630001, 100.380636)"><g><path d="M 19.046875 -25.65625 C 19.285156 -27.46875 19.113281 -29.03125 18.53125 -30.34375 C 17.957031 -31.65625 17.070312 -32.460938 15.875 -32.765625 C 13.894531 -33.097656 12.25 -32.59375 10.9375 -31.25 C 9.625 -29.90625 8.773438 -28.253906 8.390625 -26.296875 C 8.015625 -24.335938 8.1875 -22.613281 8.90625 -21.125 C 9.800781 -19.5625 10.960938 -18.742188 12.390625 -18.671875 C 13.828125 -18.609375 15.1875 -19.179688 16.46875 -20.390625 C 17.75 -21.597656 18.609375 -23.351562 19.046875 -25.65625 Z M 8.46875 -15.5 C 9.019531 -11.945312 10.140625 -9.617188 11.828125 -8.515625 C 13.523438 -7.410156 15.125 -7.117188 16.625 -7.640625 C 18.132812 -8.171875 19.066406 -9.382812 19.421875 -11.28125 C 19.585938 -12.507812 20.140625 -13.257812 21.078125 -13.53125 C 22.023438 -13.8125 22.929688 -13.722656 23.796875 -13.265625 C 24.660156 -12.816406 25.0625 -12.125 25 -11.1875 C 24.582031 -8.90625 23.4375 -6.992188 21.5625 -5.453125 C 19.6875 -3.910156 17.273438 -3.1875 14.328125 -3.28125 C 11.378906 -3.375 8.675781 -4.34375 6.21875 -6.1875 C 3.769531 -8.039062 2.019531 -10.597656 0.96875 -13.859375 C -0.0703125 -17.117188 -0.363281 -20.46875 0.09375 -23.90625 C 0.5625 -27.34375 1.851562 -30.316406 3.96875 -32.828125 C 6.09375 -35.347656 9.097656 -36.867188 12.984375 -37.390625 C 16.484375 -37.691406 19.289062 -37.054688 21.40625 -35.484375 C 23.519531 -33.921875 24.878906 -31.90625 25.484375 -29.4375 C 26.085938 -26.976562 25.882812 -24.550781 24.875 -22.15625 C 23.875 -19.769531 22.015625 -17.90625 19.296875 -16.5625 C 16.585938 -15.21875 12.976562 -14.863281 8.46875 -15.5 Z M 8.46875 -15.5 "/></g></g></g><g fill="#5ce1e6" fill-opacity="0.302"><g transform="translate(169.267304, 99.090905)"><g/></g></g><g fill="#5ce1e6" fill-opacity="0.302"><g transform="translate(188.597425, 97.227753)"><g><path d="M -8.09375 -49.34375 C -8.0625 -50.695312 -7.535156 -51.691406 -6.515625 -52.328125 C -5.492188 -52.960938 -4.300781 -53.28125 -2.9375 -53.28125 C -1.570312 -53.289062 -0.390625 -52.992188 0.609375 -52.390625 C 1.609375 -51.785156 2.09375 -50.925781 2.0625 -49.8125 C 1.78125 -45.445312 1.988281 -40.046875 2.6875 -33.609375 C 3.394531 -27.171875 4.359375 -21.0625 5.578125 -15.28125 C 6.085938 -12.78125 6.929688 -11.175781 8.109375 -10.46875 C 9.285156 -9.757812 10.882812 -9.679688 12.90625 -10.234375 C 14.9375 -10.796875 17.453125 -11.722656 20.453125 -13.015625 C 21.941406 -13.484375 23.085938 -13.15625 23.890625 -12.03125 C 24.703125 -10.90625 24.976562 -9.640625 24.71875 -8.234375 C 24.46875 -6.828125 23.460938 -5.945312 21.703125 -5.59375 C 19.003906 -5.164062 16.535156 -4.660156 14.296875 -4.078125 C 11.585938 -3.347656 9.179688 -2.925781 7.078125 -2.8125 C 4.984375 -2.695312 3.191406 -3.363281 1.703125 -4.8125 C 0.210938 -6.269531 -0.992188 -8.976562 -1.921875 -12.9375 C -2.953125 -17.425781 -3.925781 -22.285156 -4.84375 -27.515625 C -5.757812 -32.742188 -6.519531 -37.410156 -7.125 -41.515625 C -7.738281 -45.617188 -8.0625 -48.226562 -8.09375 -49.34375 Z M -8.09375 -49.34375 "/></g></g></g><g fill="#5ce1e6" fill-opacity="0.302"><g transform="translate(217.693734, 92.107084)"><g><path d="M 9.9375 -7.3125 C 12.09375 -7.40625 13.59375 -8.34375 14.4375 -10.125 C 15.28125 -11.914062 15.554688 -13.941406 15.265625 -16.203125 C 14.984375 -18.472656 14.25 -20.363281 13.0625 -21.875 C 11.875 -23.394531 10.304688 -23.945312 8.359375 -23.53125 C 6.460938 -22.9375 5.144531 -21.796875 4.40625 -20.109375 C 3.675781 -18.421875 3.441406 -16.59375 3.703125 -14.625 C 3.972656 -12.65625 4.644531 -10.960938 5.71875 -9.546875 C 6.789062 -8.140625 8.195312 -7.394531 9.9375 -7.3125 Z M 11.953125 -28.453125 C 10.378906 -32.285156 8.648438 -34.609375 6.765625 -35.421875 C 4.890625 -36.242188 3.300781 -36.023438 2 -34.765625 C 0.707031 -33.515625 0.179688 -31.722656 0.421875 -29.390625 C 0.515625 -28.085938 0.046875 -27.203125 -0.984375 -26.734375 C -2.023438 -26.265625 -3.097656 -26.179688 -4.203125 -26.484375 C -5.304688 -26.796875 -5.9375 -27.4375 -6.09375 -28.40625 C -6.132812 -31.445312 -5.0625 -33.945312 -2.875 -35.90625 C -0.6875 -37.875 1.972656 -39.054688 5.109375 -39.453125 C 8.066406 -39.753906 10.671875 -39.140625 12.921875 -37.609375 C 15.179688 -36.085938 17.050781 -34.003906 18.53125 -31.359375 C 20.019531 -28.710938 21.082031 -25.859375 21.71875 -22.796875 C 22.300781 -20.148438 22.484375 -17.539062 22.265625 -14.96875 C 22.046875 -12.40625 21.234375 -10.128906 19.828125 -8.140625 C 18.421875 -6.160156 16.210938 -4.710938 13.203125 -3.796875 C 9.648438 -2.859375 6.585938 -3.003906 4.015625 -4.234375 C 1.453125 -5.472656 -0.445312 -7.316406 -1.6875 -9.765625 C -2.925781 -12.222656 -3.332031 -14.816406 -2.90625 -17.546875 C -2.476562 -20.285156 -1.078125 -22.679688 1.296875 -24.734375 C 3.679688 -26.796875 7.234375 -28.035156 11.953125 -28.453125 Z M 11.953125 -28.453125 "/></g></g></g><g fill="#5ce1e6" fill-opacity="0.302"><g transform="translate(249.527629, 83.598631)"><g><path d="M -11.125 -30.546875 C -11.519531 -32.234375 -11.140625 -33.53125 -9.984375 -34.4375 C -8.835938 -35.351562 -7.535156 -35.71875 -6.078125 -35.53125 C -4.628906 -35.34375 -3.65625 -34.4375 -3.15625 -32.8125 C -1.664062 -35.320312 0.0703125 -37.148438 2.0625 -38.296875 C 4.050781 -39.453125 6.117188 -39.953125 8.265625 -39.796875 C 10.960938 -39.503906 13.351562 -38.234375 15.4375 -35.984375 C 17.519531 -33.734375 19.03125 -31.015625 19.96875 -27.828125 C 20.914062 -24.648438 21.035156 -21.53125 20.328125 -18.46875 C 19.628906 -15.40625 17.847656 -12.925781 14.984375 -11.03125 C 13.234375 -9.976562 11.5 -9.378906 9.78125 -9.234375 C 8.070312 -9.097656 6.769531 -9.3125 5.875 -9.875 C 6.25 -8.75 6.78125 -7.253906 7.46875 -5.390625 C 8.113281 -3.640625 8.753906 -1.882812 9.390625 -0.125 C 10.023438 1.625 10.535156 3.054688 10.921875 4.171875 C 11.234375 5.359375 10.957031 6.382812 10.09375 7.25 C 9.226562 8.113281 8.207031 8.59375 7.03125 8.6875 C 5.851562 8.78125 4.957031 8.257812 4.34375 7.125 C 2.9375 4.132812 1.09375 -0.0820312 -1.1875 -5.53125 C -3.46875 -10.988281 -5.585938 -16.175781 -7.546875 -21.09375 C -9.503906 -26.019531 -10.695312 -29.171875 -11.125 -30.546875 Z M 11.78125 -28 C 10.5625 -30.582031 9.140625 -32.28125 7.515625 -33.09375 C 5.890625 -33.90625 4.382812 -33.957031 3 -33.25 C 1.613281 -32.539062 0.691406 -31.195312 0.234375 -29.21875 C -0.222656 -27.25 0.09375 -24.769531 1.1875 -21.78125 C 2.613281 -18.351562 4.234375 -16.050781 6.046875 -14.875 C 7.867188 -13.695312 9.503906 -13.484375 10.953125 -14.234375 C 12.398438 -14.984375 13.285156 -16.546875 13.609375 -18.921875 C 13.941406 -21.304688 13.332031 -24.332031 11.78125 -28 Z M 11.78125 -28 "/></g></g></g><g fill="#5ce1e6" fill-opacity="0.302"><g transform="translate(279.999113, 72.301749)"><g><path d="M 8.4375 -9.015625 C 10.539062 -9.484375 11.84375 -10.675781 12.34375 -12.59375 C 12.851562 -14.519531 12.757812 -16.566406 12.0625 -18.734375 C 11.363281 -20.898438 10.289062 -22.617188 8.84375 -23.890625 C 7.394531 -25.171875 5.757812 -25.425781 3.9375 -24.65625 C 2.175781 -23.726562 1.085938 -22.367188 0.671875 -20.578125 C 0.253906 -18.785156 0.351562 -16.945312 0.96875 -15.0625 C 1.59375 -13.175781 2.5625 -11.632812 3.875 -10.4375 C 5.195312 -9.238281 6.71875 -8.765625 8.4375 -9.015625 Z M 6.5625 -30.15625 C 4.320312 -33.632812 2.195312 -35.601562 0.1875 -36.0625 C -1.8125 -36.53125 -3.332031 -36.023438 -4.375 -34.546875 C -5.414062 -33.078125 -5.609375 -31.21875 -4.953125 -28.96875 C -4.617188 -27.707031 -4.914062 -26.753906 -5.84375 -26.109375 C -6.78125 -25.460938 -7.816406 -25.1875 -8.953125 -25.28125 C -10.085938 -25.375 -10.820312 -25.882812 -11.15625 -26.8125 C -11.769531 -29.800781 -11.175781 -32.457031 -9.375 -34.78125 C -7.570312 -37.113281 -5.171875 -38.757812 -2.171875 -39.71875 C 0.679688 -40.550781 3.351562 -40.425781 5.84375 -39.34375 C 8.34375 -38.257812 10.5625 -36.550781 12.5 -34.21875 C 14.445312 -31.882812 16.015625 -29.269531 17.203125 -26.375 C 18.253906 -23.875 18.90625 -21.34375 19.15625 -18.78125 C 19.40625 -16.21875 19.019531 -13.832031 18 -11.625 C 16.988281 -9.425781 15.082031 -7.601562 12.28125 -6.15625 C 8.957031 -4.582031 5.921875 -4.164062 3.171875 -4.90625 C 0.421875 -5.644531 -1.78125 -7.109375 -3.4375 -9.296875 C -5.101562 -11.484375 -5.976562 -13.960938 -6.0625 -16.734375 C -6.144531 -19.503906 -5.195312 -22.113281 -3.21875 -24.5625 C -1.25 -27.019531 2.007812 -28.882812 6.5625 -30.15625 Z M 6.5625 -30.15625 "/></g></g></g><g fill="#0c4a6e" fill-opacity="1"><g transform="translate(11.73443, 73.637969)"><g><path d="M 51.578125 -33.390625 C 50.140625 -29.398438 48.304688 -25.117188 46.078125 -20.546875 C 43.847656 -15.972656 41.335938 -11.664062 38.546875 -7.625 C 35.765625 -3.582031 32.828125 -0.351562 29.734375 2.0625 C 26.640625 4.476562 23.503906 5.523438 20.328125 5.203125 C 17.972656 4.804688 16.113281 3.253906 14.75 0.546875 C 13.394531 -2.148438 12.441406 -5.539062 11.890625 -9.625 C 11.347656 -13.707031 11.132812 -18.003906 11.25 -22.515625 C 11.375 -27.035156 11.726562 -31.3125 12.3125 -35.34375 C 12.894531 -39.382812 13.640625 -42.703125 14.546875 -45.296875 C 15.035156 -46.523438 15.875 -47.273438 17.0625 -47.546875 C 18.25 -47.828125 19.476562 -47.734375 20.75 -47.265625 C 22.019531 -46.796875 23.007812 -46.070312 23.71875 -45.09375 C 24.4375 -44.125 24.578125 -43.03125 24.140625 -41.8125 C 23.222656 -39.601562 22.394531 -36.445312 21.65625 -32.34375 C 20.925781 -28.238281 20.4375 -23.941406 20.1875 -19.453125 C 19.945312 -14.960938 20.117188 -11.046875 20.703125 -7.703125 C 21.285156 -4.359375 22.453125 -2.351562 24.203125 -1.6875 C 25.410156 -1.414062 27.320312 -2.757812 29.9375 -5.71875 C 32.5625 -8.6875 35.15625 -12.726562 37.71875 -17.84375 C 40.28125 -22.96875 42.070312 -28.660156 43.09375 -34.921875 C 43.351562 -36.378906 44 -37.375 45.03125 -37.90625 C 46.070312 -38.445312 47.1875 -38.601562 48.375 -38.375 C 49.5625 -38.144531 50.5 -37.59375 51.1875 -36.71875 C 51.882812 -35.851562 52.015625 -34.742188 51.578125 -33.390625 Z M 51.578125 -33.390625 "/></g></g></g><g fill="#0c4a6e" fill-opacity="1"><g transform="translate(53.545011, 86.243499)"><g><path d="M 18.34375 -39.953125 C 18.269531 -39.523438 18.113281 -38.898438 17.875 -38.078125 C 17.644531 -37.265625 17.394531 -36.46875 17.125 -35.6875 C 16.863281 -34.90625 16.625 -34.375 16.40625 -34.09375 C 15.445312 -33.039062 14.175781 -32.679688 12.59375 -33.015625 C 11.007812 -33.347656 9.898438 -34.160156 9.265625 -35.453125 C 9.148438 -35.859375 9.113281 -36.472656 9.15625 -37.296875 C 9.195312 -38.128906 9.269531 -38.96875 9.375 -39.8125 C 9.488281 -40.664062 9.597656 -41.332031 9.703125 -41.8125 C 10.078125 -43.070312 11.003906 -43.757812 12.484375 -43.875 C 13.972656 -44 15.363281 -43.703125 16.65625 -42.984375 C 17.957031 -42.265625 18.519531 -41.253906 18.34375 -39.953125 Z M 6.609375 -26.125 C 7.078125 -27.601562 8.007812 -28.410156 9.40625 -28.546875 C 10.8125 -28.691406 12.085938 -28.367188 13.234375 -27.578125 C 14.378906 -26.785156 14.816406 -25.726562 14.546875 -24.40625 C 13.503906 -20.675781 12.5625 -16.992188 11.71875 -13.359375 C 11.007812 -10.328125 10.269531 -7.351562 9.5 -4.4375 C 9.164062 -3.507812 8.425781 -2.976562 7.28125 -2.84375 C 6.144531 -2.71875 5.070312 -2.941406 4.0625 -3.515625 C 3.0625 -4.097656 2.597656 -5.003906 2.671875 -6.234375 C 3.023438 -9.023438 3.585938 -12.320312 4.359375 -16.125 C 5.140625 -19.925781 5.890625 -23.257812 6.609375 -26.125 Z M 6.609375 -26.125 "/></g></g></g><g fill="#0c4a6e" fill-opacity="1"><g transform="translate(66.223422, 89.386198)"><g><path d="M 5.625 -4.046875 C 4.957031 -5.546875 4.992188 -6.726562 5.734375 -7.59375 C 6.472656 -8.457031 7.382812 -8.851562 8.46875 -8.78125 C 9.550781 -8.707031 10.289062 -8.019531 10.6875 -6.71875 C 11.132812 -5.101562 11.910156 -4.085938 13.015625 -3.671875 C 14.117188 -3.265625 15.128906 -3.328125 16.046875 -3.859375 C 16.960938 -4.398438 17.347656 -5.285156 17.203125 -6.515625 C 17.046875 -7.347656 16.550781 -8.179688 15.71875 -9.015625 C 14.894531 -9.847656 13.894531 -10.71875 12.71875 -11.625 C 11.070312 -12.875 9.503906 -14.316406 8.015625 -15.953125 C 6.523438 -17.597656 5.59375 -19.550781 5.21875 -21.8125 C 4.863281 -25.601562 5.703125 -28.570312 7.734375 -30.71875 C 9.773438 -32.863281 12.300781 -34.132812 15.3125 -34.53125 C 18.332031 -34.925781 21.132812 -34.394531 23.71875 -32.9375 C 26.3125 -31.476562 27.984375 -29.03125 28.734375 -25.59375 C 28.972656 -23.851562 28.570312 -22.695312 27.53125 -22.125 C 26.5 -21.5625 25.410156 -21.4375 24.265625 -21.75 C 23.128906 -22.0625 22.519531 -22.6875 22.4375 -23.625 C 22.394531 -26.707031 21.675781 -28.628906 20.28125 -29.390625 C 18.882812 -30.160156 17.453125 -30.066406 15.984375 -29.109375 C 14.515625 -28.160156 13.648438 -26.671875 13.390625 -24.640625 C 13.304688 -22.773438 13.820312 -21.164062 14.9375 -19.8125 C 16.0625 -18.46875 17.390625 -17.195312 18.921875 -16 C 20.773438 -14.59375 22.316406 -13.019531 23.546875 -11.28125 C 24.785156 -9.539062 25.070312 -7.363281 24.40625 -4.75 C 23.53125 -2.144531 21.832031 -0.414062 19.3125 0.4375 C 16.789062 1.300781 14.195312 1.34375 11.53125 0.5625 C 8.875 -0.207031 6.90625 -1.742188 5.625 -4.046875 Z M 5.625 -4.046875 "/></g></g></g><g fill="#0c4a6e" fill-opacity="1"><g transform="translate(94.842061, 93.993782)"><g><path d="M 13.53125 -41.828125 C 13.5 -41.398438 13.410156 -40.765625 13.265625 -39.921875 C 13.128906 -39.085938 12.976562 -38.265625 12.8125 -37.453125 C 12.644531 -36.640625 12.472656 -36.085938 12.296875 -35.796875 C 11.460938 -34.628906 10.238281 -34.113281 8.625 -34.25 C 7.007812 -34.394531 5.816406 -35.082031 5.046875 -36.3125 C 4.878906 -36.695312 4.765625 -37.300781 4.703125 -38.125 C 4.640625 -38.957031 4.613281 -39.800781 4.625 -40.65625 C 4.632812 -41.507812 4.664062 -42.175781 4.71875 -42.65625 C 4.9375 -43.957031 5.773438 -44.753906 7.234375 -45.046875 C 8.691406 -45.335938 10.109375 -45.203125 11.484375 -44.640625 C 12.859375 -44.078125 13.539062 -43.140625 13.53125 -41.828125 Z M 3.5 -26.734375 C 3.78125 -28.253906 4.609375 -29.164062 5.984375 -29.46875 C 7.359375 -29.769531 8.660156 -29.59375 9.890625 -28.9375 C 11.128906 -28.289062 11.6875 -27.289062 11.5625 -25.9375 C 10.96875 -22.113281 10.46875 -18.347656 10.0625 -14.640625 C 9.71875 -11.546875 9.335938 -8.503906 8.921875 -5.515625 C 8.691406 -4.554688 8.015625 -3.945312 6.890625 -3.6875 C 5.773438 -3.425781 4.679688 -3.519531 3.609375 -3.96875 C 2.546875 -4.425781 1.984375 -5.269531 1.921875 -6.5 C 1.953125 -9.320312 2.125 -12.664062 2.4375 -16.53125 C 2.757812 -20.394531 3.113281 -23.796875 3.5 -26.734375 Z M 3.5 -26.734375 "/></g></g></g><g fill="#0c4a6e" fill-opacity="1"><g transform="translate(109.25635, 95.728967)"><g><path d="M 18.125 -11.296875 C 18.320312 -12.359375 18.929688 -12.972656 19.953125 -13.140625 C 20.984375 -13.316406 21.960938 -13.128906 22.890625 -12.578125 C 23.828125 -12.035156 24.242188 -11.21875 24.140625 -10.125 C 23.585938 -7.269531 22.378906 -5.039062 20.515625 -3.4375 C 18.660156 -1.832031 16.535156 -0.96875 14.140625 -0.84375 C 11.753906 -0.726562 9.507812 -1.492188 7.40625 -3.140625 C 5.3125 -4.785156 3.75 -7.445312 2.71875 -11.125 C 1.78125 -15.40625 1.382812 -20.671875 1.53125 -26.921875 C 1.6875 -33.179688 2.015625 -38.53125 2.515625 -42.96875 C 2.773438 -44.5 3.65625 -45.347656 5.15625 -45.515625 C 6.65625 -45.679688 8.09375 -45.390625 9.46875 -44.640625 C 10.84375 -43.890625 11.5 -42.875 11.4375 -41.59375 C 11.332031 -40.957031 11.203125 -40.203125 11.046875 -39.328125 C 10.765625 -37.753906 10.484375 -35.976562 10.203125 -34 C 9.929688 -32.019531 9.796875 -30.097656 9.796875 -28.234375 L 19.015625 -27.984375 C 19.992188 -27.867188 20.617188 -27.367188 20.890625 -26.484375 C 21.160156 -25.597656 21.117188 -24.722656 20.765625 -23.859375 C 20.421875 -22.992188 19.757812 -22.585938 18.78125 -22.640625 C 18.082031 -22.710938 17.410156 -22.800781 16.765625 -22.90625 C 15.378906 -23.164062 14.160156 -23.253906 13.109375 -23.171875 C 12.066406 -23.097656 11.238281 -22.585938 10.625 -21.640625 C 10.019531 -20.703125 9.660156 -19.050781 9.546875 -16.6875 C 9.492188 -12.09375 10.097656 -8.945312 11.359375 -7.25 C 12.617188 -5.5625 13.957031 -5.109375 15.375 -5.890625 C 16.789062 -6.671875 17.707031 -8.472656 18.125 -11.296875 Z M 18.125 -11.296875 "/></g></g></g><g fill="#0c4a6e" fill-opacity="1"><g transform="translate(136.214097, 97.092443)"><g><path d="M 19.046875 -25.65625 C 19.285156 -27.46875 19.113281 -29.03125 18.53125 -30.34375 C 17.957031 -31.65625 17.070312 -32.460938 15.875 -32.765625 C 13.894531 -33.097656 12.25 -32.59375 10.9375 -31.25 C 9.625 -29.90625 8.773438 -28.253906 8.390625 -26.296875 C 8.015625 -24.335938 8.1875 -22.613281 8.90625 -21.125 C 9.800781 -19.5625 10.960938 -18.742188 12.390625 -18.671875 C 13.828125 -18.609375 15.1875 -19.179688 16.46875 -20.390625 C 17.75 -21.597656 18.609375 -23.351562 19.046875 -25.65625 Z M 8.46875 -15.5 C 9.019531 -11.945312 10.140625 -9.617188 11.828125 -8.515625 C 13.523438 -7.410156 15.125 -7.117188 16.625 -7.640625 C 18.132812 -8.171875 19.066406 -9.382812 19.421875 -11.28125 C 19.585938 -12.507812 20.140625 -13.257812 21.078125 -13.53125 C 22.023438 -13.8125 22.929688 -13.722656 23.796875 -13.265625 C 24.660156 -12.816406 25.0625 -12.125 25 -11.1875 C 24.582031 -8.90625 23.4375 -6.992188 21.5625 -5.453125 C 19.6875 -3.910156 17.273438 -3.1875 14.328125 -3.28125 C 11.378906 -3.375 8.675781 -4.34375 6.21875 -6.1875 C 3.769531 -8.039062 2.019531 -10.597656 0.96875 -13.859375 C -0.0703125 -17.117188 -0.363281 -20.46875 0.09375 -23.90625 C 0.5625 -27.34375 1.851562 -30.316406 3.96875 -32.828125 C 6.09375 -35.347656 9.097656 -36.867188 12.984375 -37.390625 C 16.484375 -37.691406 19.289062 -37.054688 21.40625 -35.484375 C 23.519531 -33.921875 24.878906 -31.90625 25.484375 -29.4375 C 26.085938 -26.976562 25.882812 -24.550781 24.875 -22.15625 C 23.875 -19.769531 22.015625 -17.90625 19.296875 -16.5625 C 16.585938 -15.21875 12.976562 -14.863281 8.46875 -15.5 Z M 8.46875 -15.5 "/></g></g></g><g fill="#0c4a6e" fill-opacity="1"><g transform="translate(167.851386, 95.802712)"><g/></g></g><g fill="#0c4a6e" fill-opacity="1"><g transform="translate(187.181536, 93.93956)"><g><path d="M -8.09375 -49.34375 C -8.0625 -50.695312 -7.535156 -51.691406 -6.515625 -52.328125 C -5.492188 -52.960938 -4.300781 -53.28125 -2.9375 -53.28125 C -1.570312 -53.289062 -0.390625 -52.992188 0.609375 -52.390625 C 1.609375 -51.785156 2.09375 -50.925781 2.0625 -49.8125 C 1.78125 -45.445312 1.988281 -40.046875 2.6875 -33.609375 C 3.394531 -27.171875 4.359375 -21.0625 5.578125 -15.28125 C 6.085938 -12.78125 6.929688 -11.175781 8.109375 -10.46875 C 9.285156 -9.757812 10.882812 -9.679688 12.90625 -10.234375 C 14.9375 -10.796875 17.453125 -11.722656 20.453125 -13.015625 C 21.941406 -13.484375 23.085938 -13.15625 23.890625 -12.03125 C 24.703125 -10.90625 24.976562 -9.640625 24.71875 -8.234375 C 24.46875 -6.828125 23.460938 -5.945312 21.703125 -5.59375 C 19.003906 -5.164062 16.535156 -4.660156 14.296875 -4.078125 C 11.585938 -3.347656 9.179688 -2.925781 7.078125 -2.8125 C 4.984375 -2.695312 3.191406 -3.363281 1.703125 -4.8125 C 0.210938 -6.269531 -0.992188 -8.976562 -1.921875 -12.9375 C -2.953125 -17.425781 -3.925781 -22.285156 -4.84375 -27.515625 C -5.757812 -32.742188 -6.519531 -37.410156 -7.125 -41.515625 C -7.738281 -45.617188 -8.0625 -48.226562 -8.09375 -49.34375 Z M -8.09375 -49.34375 "/></g></g></g><g fill="#0c4a6e" fill-opacity="1"><g transform="translate(216.277816, 88.818887)"><g><path d="M 9.9375 -7.3125 C 12.09375 -7.40625 13.59375 -8.34375 14.4375 -10.125 C 15.28125 -11.914062 15.554688 -13.941406 15.265625 -16.203125 C 14.984375 -18.472656 14.25 -20.363281 13.0625 -21.875 C 11.875 -23.394531 10.304688 -23.945312 8.359375 -23.53125 C 6.460938 -22.9375 5.144531 -21.796875 4.40625 -20.109375 C 3.675781 -18.421875 3.441406 -16.59375 3.703125 -14.625 C 3.972656 -12.65625 4.644531 -10.960938 5.71875 -9.546875 C 6.789062 -8.140625 8.195312 -7.394531 9.9375 -7.3125 Z M 11.953125 -28.453125 C 10.378906 -32.285156 8.648438 -34.609375 6.765625 -35.421875 C 4.890625 -36.242188 3.300781 -36.023438 2 -34.765625 C 0.707031 -33.515625 0.179688 -31.722656 0.421875 -29.390625 C 0.515625 -28.085938 0.046875 -27.203125 -0.984375 -26.734375 C -2.023438 -26.265625 -3.097656 -26.179688 -4.203125 -26.484375 C -5.304688 -26.796875 -5.9375 -27.4375 -6.09375 -28.40625 C -6.132812 -31.445312 -5.0625 -33.945312 -2.875 -35.90625 C -0.6875 -37.875 1.972656 -39.054688 5.109375 -39.453125 C 8.066406 -39.753906 10.671875 -39.140625 12.921875 -37.609375 C 15.179688 -36.085938 17.050781 -34.003906 18.53125 -31.359375 C 20.019531 -28.710938 21.082031 -25.859375 21.71875 -22.796875 C 22.300781 -20.148438 22.484375 -17.539062 22.265625 -14.96875 C 22.046875 -12.40625 21.234375 -10.128906 19.828125 -8.140625 C 18.421875 -6.160156 16.210938 -4.710938 13.203125 -3.796875 C 9.648438 -2.859375 6.585938 -3.003906 4.015625 -4.234375 C 1.453125 -5.472656 -0.445312 -7.316406 -1.6875 -9.765625 C -2.925781 -12.222656 -3.332031 -14.816406 -2.90625 -17.546875 C -2.476562 -20.285156 -1.078125 -22.679688 1.296875 -24.734375 C 3.679688 -26.796875 7.234375 -28.035156 11.953125 -28.453125 Z M 11.953125 -28.453125 "/></g></g></g><g fill="#0c4a6e" fill-opacity="1"><g transform="translate(248.11171, 80.310437)"><g><path d="M -11.125 -30.546875 C -11.519531 -32.234375 -11.140625 -33.53125 -9.984375 -34.4375 C -8.835938 -35.351562 -7.535156 -35.71875 -6.078125 -35.53125 C -4.628906 -35.34375 -3.65625 -34.4375 -3.15625 -32.8125 C -1.664062 -35.320312 0.0703125 -37.148438 2.0625 -38.296875 C 4.050781 -39.453125 6.117188 -39.953125 8.265625 -39.796875 C 10.960938 -39.503906 13.351562 -38.234375 15.4375 -35.984375 C 17.519531 -33.734375 19.03125 -31.015625 19.96875 -27.828125 C 20.914062 -24.648438 21.035156 -21.53125 20.328125 -18.46875 C 19.628906 -15.40625 17.847656 -12.925781 14.984375 -11.03125 C 13.234375 -9.976562 11.5 -9.378906 9.78125 -9.234375 C 8.070312 -9.097656 6.769531 -9.3125 5.875 -9.875 C 6.25 -8.75 6.78125 -7.253906 7.46875 -5.390625 C 8.113281 -3.640625 8.753906 -1.882812 9.390625 -0.125 C 10.023438 1.625 10.535156 3.054688 10.921875 4.171875 C 11.234375 5.359375 10.957031 6.382812 10.09375 7.25 C 9.226562 8.113281 8.207031 8.59375 7.03125 8.6875 C 5.851562 8.78125 4.957031 8.257812 4.34375 7.125 C 2.9375 4.132812 1.09375 -0.0820312 -1.1875 -5.53125 C -3.46875 -10.988281 -5.585938 -16.175781 -7.546875 -21.09375 C -9.503906 -26.019531 -10.695312 -29.171875 -11.125 -30.546875 Z M 11.78125 -28 C 10.5625 -30.582031 9.140625 -32.28125 7.515625 -33.09375 C 5.890625 -33.90625 4.382812 -33.957031 3 -33.25 C 1.613281 -32.539062 0.691406 -31.195312 0.234375 -29.21875 C -0.222656 -27.25 0.09375 -24.769531 1.1875 -21.78125 C 2.613281 -18.351562 4.234375 -16.050781 6.046875 -14.875 C 7.867188 -13.695312 9.503906 -13.484375 10.953125 -14.234375 C 12.398438 -14.984375 13.285156 -16.546875 13.609375 -18.921875 C 13.941406 -21.304688 13.332031 -24.332031 11.78125 -28 Z M 11.78125 -28 "/></g></g></g><g fill="#0c4a6e" fill-opacity="1"><g transform="translate(278.583224, 69.013552)"><g><path d="M 8.4375 -9.015625 C 10.539062 -9.484375 11.84375 -10.675781 12.34375 -12.59375 C 12.851562 -14.519531 12.757812 -16.566406 12.0625 -18.734375 C 11.363281 -20.898438 10.289062 -22.617188 8.84375 -23.890625 C 7.394531 -25.171875 5.757812 -25.425781 3.9375 -24.65625 C 2.175781 -23.726562 1.085938 -22.367188 0.671875 -20.578125 C 0.253906 -18.785156 0.351562 -16.945312 0.96875 -15.0625 C 1.59375 -13.175781 2.5625 -11.632812 3.875 -10.4375 C 5.195312 -9.238281 6.71875 -8.765625 8.4375 -9.015625 Z M 6.5625 -30.15625 C 4.320312 -33.632812 2.195312 -35.601562 0.1875 -36.0625 C -1.8125 -36.53125 -3.332031 -36.023438 -4.375 -34.546875 C -5.414062 -33.078125 -5.609375 -31.21875 -4.953125 -28.96875 C -4.617188 -27.707031 -4.914062 -26.753906 -5.84375 -26.109375 C -6.78125 -25.460938 -7.816406 -25.1875 -8.953125 -25.28125 C -10.085938 -25.375 -10.820312 -25.882812 -11.15625 -26.8125 C -11.769531 -29.800781 -11.175781 -32.457031 -9.375 -34.78125 C -7.570312 -37.113281 -5.171875 -38.757812 -2.171875 -39.71875 C 0.679688 -40.550781 3.351562 -40.425781 5.84375 -39.34375 C 8.34375 -38.257812 10.5625 -36.550781 12.5 -34.21875 C 14.445312 -31.882812 16.015625 -29.269531 17.203125 -26.375 C 18.253906 -23.875 18.90625 -21.34375 19.15625 -18.78125 C 19.40625 -16.21875 19.019531 -13.832031 18 -11.625 C 16.988281 -9.425781 15.082031 -7.601562 12.28125 -6.15625 C 8.957031 -4.582031 5.921875 -4.164062 3.171875 -4.90625 C 0.421875 -5.644531 -1.78125 -7.109375 -3.4375 -9.296875 C -5.101562 -11.484375 -5.976562 -13.960938 -6.0625 -16.734375 C -6.144531 -19.503906 -5.195312 -22.113281 -3.21875 -24.5625 C -1.25 -27.019531 2.007812 -28.882812 6.5625 -30.15625 Z M 6.5625 -30.15625 "/></g></g></g></g></g></g></g></g></svg>