<svg xmlns="http://www.w3.org/2000/svg" xmlns:xlink="http://www.w3.org/1999/xlink" width="500" zoomAndPan="magnify" viewBox="0 0 375 374.999991" height="500" preserveAspectRatio="xMidYMid meet" version="1.0"><defs><g/><clipPath id="189bf48de5"><path d="M 2 19 L 372 19 L 372 368 L 2 368 Z M 2 19 " clip-rule="nonzero"/></clipPath><clipPath id="8b4d188b14"><path d="M 60.203125 -31.542969 L 405.496094 72.914062 L 304.511719 406.726562 L -40.78125 302.265625 Z M 60.203125 -31.542969 " clip-rule="nonzero"/></clipPath><clipPath id="75e6dbeb3e"><path d="M 60.203125 -31.542969 L 405.496094 72.914062 L 304.511719 406.726562 L -40.78125 302.265625 Z M 60.203125 -31.542969 " clip-rule="nonzero"/></clipPath><clipPath id="de3f7cd5a4"><path d="M 0 14 L 371 14 L 371 364 L 0 364 Z M 0 14 " clip-rule="nonzero"/></clipPath><clipPath id="0d44423f49"><path d="M 58.703125 -35.742188 L 403.996094 68.714844 L 303.011719 402.523438 L -42.28125 298.066406 Z M 58.703125 -35.742188 " clip-rule="nonzero"/></clipPath><clipPath id="4017ef4d7f"><path d="M 58.703125 -35.742188 L 403.996094 68.714844 L 303.011719 402.523438 L -42.28125 298.066406 Z M 58.703125 -35.742188 " clip-rule="nonzero"/></clipPath><clipPath id="85f25c4e01"><rect x="0" width="358" y="0" height="375"/></clipPath></defs><g clip-path="url(#189bf48de5)"><g clip-path="url(#8b4d188b14)"><g clip-path="url(#75e6dbeb3e)"><path fill="#ff66c4" d="M 283.558594 332.117188 C 319.691406 299.585938 352.351562 247.082031 364.972656 204.621094 C 377.558594 162.089844 370.136719 129.667969 360.039062 106.851562 C 349.9375 84.035156 337.257812 70.851562 317.015625 57.746094 C 296.820312 44.65625 269.058594 31.640625 233.171875 24.273438 C 197.234375 16.894531 153.097656 15.195312 112.84375 35.109375 C 72.636719 55.039062 36.363281 96.59375 17.039062 135.902344 C -2.269531 175.160156 -4.660156 212.101562 23.347656 254.074219 C 51.355469 296.046875 109.714844 343.035156 158.695312 360.164062 C 207.714844 377.355469 247.40625 364.703125 283.558594 332.117188 Z M 283.558594 332.117188 " fill-opacity="1" fill-rule="evenodd"/></g></g></g><g clip-path="url(#de3f7cd5a4)"><g clip-path="url(#0d44423f49)"><g clip-path="url(#4017ef4d7f)"><path fill="#f4f6fc" d="M 282.058594 327.917969 C 318.191406 295.382812 350.851562 242.882812 363.472656 200.421875 C 376.058594 157.890625 368.636719 125.46875 358.539062 102.652344 C 348.4375 79.832031 335.757812 66.652344 315.515625 53.546875 C 295.320312 40.457031 267.558594 27.441406 231.671875 20.074219 C 195.734375 12.691406 151.597656 10.996094 111.34375 30.910156 C 71.136719 50.839844 34.863281 92.394531 15.539062 131.703125 C -3.769531 170.960938 -6.160156 207.902344 21.847656 249.875 C 49.855469 291.847656 108.214844 338.835938 157.195312 355.960938 C 206.214844 373.15625 245.90625 360.503906 282.058594 327.917969 Z M 282.058594 327.917969 " fill-opacity="1" fill-rule="evenodd"/></g></g></g><g transform="matrix(1, 0, 0, 1, 17, 0)"><g clip-path="url(#85f25c4e01)"><g fill="#5ce1e6" fill-opacity="0.4"><g transform="translate(66.687636, 313.98143)"><g><path d="M 109.25 -211.140625 C 112.050781 -194.960938 114.097656 -177.050781 115.390625 -157.40625 C 116.679688 -137.769531 116.515625 -118.488281 114.890625 -99.5625 C 113.265625 -80.632812 109.570312 -64.144531 103.8125 -50.09375 C 98.050781 -36.050781 89.53125 -26.535156 78.25 -21.546875 C 69.625 -18.316406 60.421875 -19.945312 50.640625 -26.4375 C 40.867188 -32.925781 31.148438 -42.488281 21.484375 -55.125 C 11.828125 -67.769531 2.863281 -81.804688 -5.40625 -97.234375 C -13.6875 -112.671875 -20.707031 -127.722656 -26.46875 -142.390625 C -32.226562 -157.066406 -36.085938 -169.628906 -38.046875 -180.078125 C -38.753906 -185.191406 -37.375 -189.335938 -33.90625 -192.515625 C -30.445312 -195.703125 -26.132812 -197.726562 -20.96875 -198.59375 C -15.8125 -199.46875 -11.09375 -198.957031 -6.8125 -197.0625 C -2.539062 -195.164062 0.03125 -191.734375 0.90625 -186.765625 C 2.039062 -177.597656 5.3125 -165.410156 10.71875 -150.203125 C 16.132812 -134.992188 22.738281 -119.617188 30.53125 -104.078125 C 38.320312 -88.546875 46.40625 -75.726562 54.78125 -65.625 C 63.164062 -55.519531 70.929688 -51.003906 78.078125 -52.078125 C 82.660156 -53.515625 86.515625 -61.707031 89.640625 -76.65625 C 92.765625 -91.613281 93.707031 -110.164062 92.46875 -132.3125 C 91.238281 -154.457031 86.332031 -177.015625 77.75 -199.984375 C 75.851562 -205.390625 76.132812 -209.988281 78.59375 -213.78125 C 81.0625 -217.570312 84.507812 -220.21875 88.9375 -221.71875 C 93.363281 -223.21875 97.566406 -223.171875 101.546875 -221.578125 C 105.535156 -219.992188 108.101562 -216.515625 109.25 -211.140625 Z M 109.25 -211.140625 "/></g></g></g><g fill="#5ce1e6" fill-opacity="0.4"><g transform="translate(217.908399, 282.394849)"><g><path d="M -22.53125 -192.109375 C -22.21875 -197.328125 -20.023438 -201.085938 -15.953125 -203.390625 C -11.890625 -205.691406 -7.226562 -206.726562 -1.96875 -206.5 C 3.289062 -206.269531 7.8125 -204.894531 11.59375 -202.375 C 15.375 -199.863281 17.085938 -196.445312 16.734375 -192.125 C 14.898438 -175.34375 14.785156 -154.441406 16.390625 -129.421875 C 17.992188 -104.398438 20.613281 -80.625 24.25 -58.09375 C 25.800781 -48.289062 28.785156 -41.925781 33.203125 -39 C 37.628906 -36.082031 43.796875 -35.519531 51.703125 -37.3125 C 59.609375 -39.101562 69.5 -42.222656 81.375 -46.671875 C 87.175781 -48.234375 91.546875 -46.773438 94.484375 -42.296875 C 97.429688 -37.816406 98.273438 -32.878906 97.015625 -27.484375 C 95.765625 -22.085938 91.703125 -18.859375 84.828125 -17.796875 C 74.347656 -16.617188 64.726562 -15.101562 55.96875 -13.25 C 45.363281 -10.882812 35.992188 -9.671875 27.859375 -9.609375 C 19.734375 -9.554688 12.925781 -12.46875 7.4375 -18.34375 C 1.957031 -24.226562 -2.234375 -34.890625 -5.140625 -50.328125 C -8.316406 -67.828125 -11.222656 -86.769531 -13.859375 -107.15625 C -16.503906 -127.539062 -18.628906 -145.722656 -20.234375 -161.703125 C -21.847656 -177.679688 -22.613281 -187.816406 -22.53125 -192.109375 Z M -22.53125 -192.109375 "/></g></g></g><g fill="#406386" fill-opacity="1"><g transform="translate(56.321787, 309.175048)"><g><path d="M 109.25 -211.140625 C 112.050781 -194.960938 114.097656 -177.050781 115.390625 -157.40625 C 116.679688 -137.769531 116.515625 -118.488281 114.890625 -99.5625 C 113.265625 -80.632812 109.570312 -64.144531 103.8125 -50.09375 C 98.050781 -36.050781 89.53125 -26.535156 78.25 -21.546875 C 69.625 -18.316406 60.421875 -19.945312 50.640625 -26.4375 C 40.867188 -32.925781 31.148438 -42.488281 21.484375 -55.125 C 11.828125 -67.769531 2.863281 -81.804688 -5.40625 -97.234375 C -13.6875 -112.671875 -20.707031 -127.722656 -26.46875 -142.390625 C -32.226562 -157.066406 -36.085938 -169.628906 -38.046875 -180.078125 C -38.753906 -185.191406 -37.375 -189.335938 -33.90625 -192.515625 C -30.445312 -195.703125 -26.132812 -197.726562 -20.96875 -198.59375 C -15.8125 -199.46875 -11.09375 -198.957031 -6.8125 -197.0625 C -2.539062 -195.164062 0.03125 -191.734375 0.90625 -186.765625 C 2.039062 -177.597656 5.3125 -165.410156 10.71875 -150.203125 C 16.132812 -134.992188 22.738281 -119.617188 30.53125 -104.078125 C 38.320312 -88.546875 46.40625 -75.726562 54.78125 -65.625 C 63.164062 -55.519531 70.929688 -51.003906 78.078125 -52.078125 C 82.660156 -53.515625 86.515625 -61.707031 89.640625 -76.65625 C 92.765625 -91.613281 93.707031 -110.164062 92.46875 -132.3125 C 91.238281 -154.457031 86.332031 -177.015625 77.75 -199.984375 C 75.851562 -205.390625 76.132812 -209.988281 78.59375 -213.78125 C 81.0625 -217.570312 84.507812 -220.21875 88.9375 -221.71875 C 93.363281 -223.21875 97.566406 -223.171875 101.546875 -221.578125 C 105.535156 -219.992188 108.101562 -216.515625 109.25 -211.140625 Z M 109.25 -211.140625 "/></g></g></g><g fill="#406386" fill-opacity="1"><g transform="translate(207.54255, 277.588456)"><g><path d="M -22.53125 -192.109375 C -22.21875 -197.328125 -20.023438 -201.085938 -15.953125 -203.390625 C -11.890625 -205.691406 -7.226562 -206.726562 -1.96875 -206.5 C 3.289062 -206.269531 7.8125 -204.894531 11.59375 -202.375 C 15.375 -199.863281 17.085938 -196.445312 16.734375 -192.125 C 14.898438 -175.34375 14.785156 -154.441406 16.390625 -129.421875 C 17.992188 -104.398438 20.613281 -80.625 24.25 -58.09375 C 25.800781 -48.289062 28.785156 -41.925781 33.203125 -39 C 37.628906 -36.082031 43.796875 -35.519531 51.703125 -37.3125 C 59.609375 -39.101562 69.5 -42.222656 81.375 -46.671875 C 87.175781 -48.234375 91.546875 -46.773438 94.484375 -42.296875 C 97.429688 -37.816406 98.273438 -32.878906 97.015625 -27.484375 C 95.765625 -22.085938 91.703125 -18.859375 84.828125 -17.796875 C 74.347656 -16.617188 64.726562 -15.101562 55.96875 -13.25 C 45.363281 -10.882812 35.992188 -9.671875 27.859375 -9.609375 C 19.734375 -9.554688 12.925781 -12.46875 7.4375 -18.34375 C 1.957031 -24.226562 -2.234375 -34.890625 -5.140625 -50.328125 C -8.316406 -67.828125 -11.222656 -86.769531 -13.859375 -107.15625 C -16.503906 -127.539062 -18.628906 -145.722656 -20.234375 -161.703125 C -21.847656 -177.679688 -22.613281 -187.816406 -22.53125 -192.109375 Z M -22.53125 -192.109375 "/></g></g></g></g></g></svg>