<svg width="1200" height="900" viewBox="0 0 1200 900" fill="none" xmlns="http://www.w3.org/2000/svg">
  <rect width="1200" height="900" fill="none"/>
  <g opacity="0.28" stroke="#CBD5E1" stroke-width="1">
    <path d="M0 75H1200"/>
    <path d="M0 150H1200"/>
    <path d="M0 225H1200"/>
    <path d="M0 300H1200"/>
    <path d="M0 375H1200"/>
    <path d="M0 450H1200"/>
    <path d="M0 525H1200"/>
    <path d="M0 600H1200"/>
    <path d="M0 675H1200"/>
    <path d="M0 750H1200"/>
    <path d="M75 0V900"/>
    <path d="M150 0V900"/>
    <path d="M225 0V900"/>
    <path d="M300 0V900"/>
    <path d="M375 0V900"/>
    <path d="M450 0V900"/>
    <path d="M525 0V900"/>
    <path d="M600 0V900"/>
    <path d="M675 0V900"/>
    <path d="M750 0V900"/>
    <path d="M825 0V900"/>
    <path d="M900 0V900"/>
    <path d="M975 0V900"/>
    <path d="M1050 0V900"/>
    <path d="M1125 0V900"/>
  </g>
</svg>
